<?xml version="1.0" encoding="UTF-8"?>
<svg id="a" data-name="Layer 1" xmlns="http://www.w3.org/2000/svg" xmlns:xlink="http://www.w3.org/1999/xlink" viewBox="0 0 367.72 152.89">
  <defs>
    <style>
      .l {
        fill: url(#c);
      }

      .l, .m, .n, .o, .p, .q, .r, .s, .t, .u, .v, .w {
        stroke-width: 0px;
      }

      .x {
        stroke: #231f20;
      }

      .x, .y {
        fill: none;
        stroke-width: 3px;
      }

      .m {
        fill: url(#e);
      }

      .n {
        fill: url(#g);
      }

      .o {
        fill: url(#i);
      }

      .p {
        fill: url(#b);
      }

      .q {
        fill: url(#h);
      }

      .r {
        fill: #fff;
      }

      .s {
        fill: url(#j);
      }

      .t {
        fill: url(#d);
      }

      .u {
        fill: #231f20;
      }

      .v {
        fill: url(#f);
      }

      .y {
        stroke: #fff;
      }

      .w {
        fill: url(#k);
      }
    </style>
    <radialGradient id="b" data-name="Steel Radial" cx="315.67" cy="39.91" fx="315.67" fy="39.91" r="35.7" gradientUnits="userSpaceOnUse">
      <stop offset="0" stop-color="#e5e2df"/>
      <stop offset="0" stop-color="#f1efed"/>
      <stop offset="0" stop-color="#fff"/>
      <stop offset=".13" stop-color="#f0f0f0"/>
      <stop offset=".37" stop-color="#c9cacb"/>
      <stop offset=".52" stop-color="#adaeb0"/>
      <stop offset=".6" stop-color="#a3a5a7"/>
      <stop offset=".74" stop-color="#898d8f"/>
      <stop offset=".91" stop-color="#5e6669"/>
      <stop offset="1" stop-color="#465053"/>
    </radialGradient>
    <radialGradient id="c" data-name="Copper Radial" cx="315.79" cy="80.35" fx="315.79" fy="80.35" r="47.61" gradientUnits="userSpaceOnUse">
      <stop offset="0" stop-color="#fff2db"/>
      <stop offset=".31" stop-color="#d7b189"/>
      <stop offset=".75" stop-color="#91562d"/>
      <stop offset=".78" stop-color="#8d5027"/>
      <stop offset="1" stop-color="#541513"/>
    </radialGradient>
    <radialGradient id="d" data-name="Copper Radial" cx="317.13" cy="38.32" fx="317.13" fy="38.32" r="8.5" xlink:href="#c"/>
    <radialGradient id="e" data-name="Copper Radial" cx="317.13" cy="38.32" fx="317.13" fy="38.32" r="5.5" xlink:href="#c"/>
    <radialGradient id="f" data-name="Pewter Radial" cx="342.13" cy="67.94" fx="342.13" fy="67.94" r="20.87" gradientUnits="userSpaceOnUse">
      <stop offset="0" stop-color="#aeb0b7"/>
      <stop offset=".32" stop-color="#a9a9a8"/>
      <stop offset=".35" stop-color="#a9a9a6"/>
      <stop offset=".5" stop-color="#9a9d9e"/>
      <stop offset=".67" stop-color="#838c92"/>
      <stop offset="1" stop-color="#657076"/>
    </radialGradient>
    <radialGradient id="g" data-name="Pewter Radial" cx="283.41" cy="117.32" fx="283.41" fy="117.32" r="22.49" xlink:href="#f"/>
    <radialGradient id="h" data-name="Copper Radial" cx="328.45" cy="106.89" fx="328.45" fy="106.89" r="10" xlink:href="#c"/>
    <radialGradient id="i" data-name="Copper Radial" cx="328.45" cy="106.89" fx="328.45" fy="106.89" r="6.4" xlink:href="#c"/>
    <linearGradient id="j" data-name="Blue Steel" x1="3.61" y1="87.14" x2="45.95" y2="87.14" gradientUnits="userSpaceOnUse">
      <stop offset="0" stop-color="#7da7d9"/>
      <stop offset=".07" stop-color="#35517d"/>
      <stop offset=".5" stop-color="#dee6f5"/>
      <stop offset=".62" stop-color="#bacdea"/>
      <stop offset=".67" stop-color="#b6cae8"/>
      <stop offset=".71" stop-color="#aac3e5"/>
      <stop offset=".76" stop-color="#96b6df"/>
      <stop offset=".81" stop-color="#7aa5d8"/>
      <stop offset=".81" stop-color="#7aa5d8"/>
      <stop offset="1" stop-color="#174d6b"/>
    </linearGradient>
    <radialGradient id="k" data-name="Pewter Radial" cx="1843.67" cy="213.03" fx="1843.67" fy="213.03" r="17.69" gradientTransform="translate(1947.96 323.31) rotate(-180)" xlink:href="#f"/>
  </defs>
  <g>
    <g>
      <path class="r" d="m313.92,77.17c-3.04-.16-5.97-.66-8.71-1.48-1.3-.39-2.65-.88-4.12-1.52-.89-.38-1.48-1.24-1.51-2.21l-.25-7.42-6.38,2.9c-.33.15-.68.22-1.03.22-.63,0-1.25-.24-1.72-.69-3.31-3.15-6-6.86-7.98-11.03-.41-.86-.3-1.87.29-2.62l4-5.1-5.84-1.62c-.97-.27-1.69-1.1-1.81-2.1-.58-4.68-.25-9.41.97-14.06.24-.91.98-1.61,1.9-1.81l5.44-1.15-2.99-4.36c-.56-.81-.59-1.88-.07-2.72,2.54-4.15,5.83-7.71,9.77-10.59.44-.32.96-.48,1.48-.48.4,0,.81.1,1.18.29l4.48,2.39.49-5.03c.09-.96.73-1.78,1.63-2.11,4.11-1.5,8.4-2.26,12.77-2.26.49,0,.99,0,1.48.03.98.04,1.85.65,2.22,1.56l1.95,4.85,3.91-3.84c.48-.47,1.11-.72,1.75-.72.27,0,.54.04.81.14,4.56,1.56,8.69,3.92,12.27,7.02.76.66,1.05,1.71.74,2.67l-1.85,5.67,6.36-.49c.06,0,.13,0,.19,0,.87,0,1.69.46,2.14,1.21,2.38,3.96,3.99,8.27,4.78,12.8.18,1-.28,2.01-1.14,2.55l-5.86,3.65,5.99,4.28c.79.56,1.18,1.52,1.01,2.48-.27,1.51-.59,2.86-.97,4.13-.83,2.8-2.06,5.57-3.63,8.25-.45.77-1.28,1.23-2.15,1.23-.12,0-.23,0-.35-.02l-7.59-1.08,1.96,7.63c.25.96-.09,1.97-.87,2.59-3.45,2.72-7.31,4.8-11.46,6.17-.26.08-.52.13-.78.13-.7,0-1.38-.29-1.86-.83l-5.28-5.88-3.33,6.97c-.42.87-1.3,1.42-2.25,1.42-.04,0-.09,0-.13,0Zm1.98-43.68c-2.83,0-5.38,1.9-6.19,4.62-.49,1.65-.31,3.4.51,4.92.82,1.52,2.18,2.63,3.84,3.12.61.18,1.23.27,1.85.27,2.83,0,5.38-1.9,6.19-4.62.49-1.65.31-3.4-.51-4.92-.82-1.52-2.18-2.63-3.84-3.12-.61-.18-1.23-.27-1.85-.27Z"/>
      <path class="r" d="m315.87,5.11c.46,0,.92,0,1.38.03l3.35,8.32,6.58-6.46c4.32,1.48,8.17,3.72,11.45,6.55l-3.01,9.22,10.09-.78c2.2,3.66,3.72,7.7,4.46,11.94l-9.04,5.63,9.03,6.45c-.23,1.29-.52,2.57-.9,3.86-.82,2.76-1.99,5.32-3.39,7.7l-11.3-1.6,2.9,11.25c-3.2,2.53-6.82,4.48-10.7,5.76l-7.78-8.66-4.95,10.34c-2.7-.14-5.42-.57-8.13-1.38-1.33-.4-2.61-.89-3.85-1.42l-.38-11.16-9.78,4.45c-3.11-2.96-5.62-6.45-7.45-10.29l6.3-8.05-9.44-2.63c-.53-4.28-.25-8.71.91-13.11l9.1-1.92-5.1-7.44c2.4-3.91,5.51-7.25,9.11-9.88l7.78,4.15.85-8.76c3.77-1.38,7.8-2.11,11.91-2.11m.04,43.81c3.86,0,7.42-2.51,8.58-6.4,1.42-4.74-1.28-9.73-6.02-11.15-.86-.26-1.72-.38-2.57-.38-3.86,0-7.42,2.51-8.58,6.4-1.42,4.74,1.28,9.73,6.02,11.15.86.26,1.72.38,2.57.38m-.04-48.81s0,0,0,0c-4.66,0-9.24.81-13.63,2.42-1.81.66-3.07,2.3-3.26,4.21l-.13,1.31-1.17-.63c-.74-.39-1.55-.59-2.35-.59-1.04,0-2.08.32-2.95.96-4.2,3.07-7.71,6.87-10.42,11.3-1.03,1.68-.98,3.81.14,5.44l.87,1.27-1.77.38c-1.85.39-3.32,1.79-3.8,3.62-1.31,4.96-1.65,10.01-1.03,15,.25,2,1.68,3.66,3.62,4.2l2.23.62-1.69,2.16c-1.17,1.49-1.39,3.52-.58,5.23,2.12,4.44,4.98,8.4,8.52,11.76.95.9,2.19,1.38,3.45,1.38.7,0,1.4-.15,2.07-.45l2.97-1.35.12,3.68c.07,1.93,1.24,3.66,3.02,4.42,1.57.67,3.01,1.21,4.4,1.62,2.93.87,6.05,1.4,9.29,1.58.09,0,.18,0,.27,0,1.92,0,3.68-1.1,4.51-2.84l1.72-3.59,2.78,3.09c.96,1.07,2.32,1.66,3.72,1.66.52,0,1.05-.08,1.57-.25,4.43-1.46,8.55-3.68,12.23-6.58,1.55-1.23,2.24-3.26,1.75-5.17l-1.03-4,3.89.55c.23.03.47.05.7.05,1.75,0,3.4-.92,4.31-2.46,1.68-2.86,2.98-5.82,3.88-8.81.41-1.36.74-2.8,1.03-4.4.34-1.9-.44-3.83-2.01-4.95l-2.94-2.1,2.68-1.67c1.73-1.08,2.63-3.1,2.28-5.11-.85-4.83-2.56-9.43-5.1-13.65-.91-1.51-2.54-2.43-4.29-2.43-.13,0-.26,0-.39.02l-2.63.2.69-2.11c.62-1.91.04-4.02-1.48-5.33-3.83-3.31-8.23-5.83-13.09-7.49-.53-.18-1.08-.27-1.62-.27-1.29,0-2.55.5-3.5,1.43l-1.24,1.22-.56-1.38c-.74-1.83-2.47-3.05-4.44-3.13-.53-.02-1.05-.03-1.58-.03h0Zm.04,43.81c-.38,0-.76-.06-1.14-.17-2.09-.62-3.29-2.84-2.66-4.93.5-1.67,2.06-2.83,3.79-2.83.38,0,.76.06,1.14.17,2.09.62,3.29,2.84,2.66,4.93-.5,1.67-2.06,2.83-3.79,2.83h0Z"/>
    </g>
    <g>
      <path class="r" d="m289.95,135.39c-9.1,0-16.5-7.4-16.5-16.5s7.4-16.5,16.5-16.5c3.51,0,6.86,1.09,9.7,3.16,1.29.94,2.82,1.44,4.42,1.44.8,0,1.59-.13,2.35-.38,2.29-.76,4.09-2.59,4.81-4.9,1.9-6.13,7.19-10.85,13.48-12.03,2.62-.49,4.79-2.35,5.68-4.86.89-2.51.38-5.33-1.35-7.36-2.52-2.97-3.91-6.76-3.91-10.65,0-1.91.32-3.78.96-5.55.87-2.42.45-5.09-1.13-7.13-1.41-1.82-3.63-2.91-5.93-2.91-.23,0-.46.01-.69.03-.4.04-.81.06-1.22.06-7.17,0-13-5.83-13-13s5.83-13,13-13,13,5.83,13,13c0,1.06-.13,2.12-.38,3.13-.62,2.5.07,5.11,1.84,6.97,1.41,1.48,3.39,2.33,5.44,2.33.48,0,.96-.05,1.44-.14,1.04-.2,2.1-.3,3.17-.3,9.1,0,16.5,7.4,16.5,16.5,0,7.74-5.49,14.53-13.06,16.14-2.6.55-4.74,2.47-5.57,5s-.25,5.33,1.52,7.32c2.85,3.21,4.42,7.33,4.42,11.61,0,9.65-7.85,17.5-17.5,17.5-3.91,0-7.61-1.27-10.7-3.66-1.31-1.01-2.94-1.57-4.6-1.57-.73,0-1.45.11-2.15.31-2.31.69-4.16,2.47-4.95,4.75-2.29,6.68-8.57,11.17-15.62,11.17Z"/>
      <path class="r" d="m317.13,27.82c5.79,0,10.5,4.71,10.5,10.5,0,.86-.1,1.71-.31,2.53-.82,3.32.1,6.82,2.46,9.3,1.91,2.01,4.54,3.11,7.25,3.11.64,0,1.28-.06,1.91-.18.88-.17,1.78-.26,2.69-.26,7.72,0,14,6.28,14,14,0,6.57-4.66,12.33-11.08,13.7-3.48.74-6.31,3.28-7.42,6.66s-.34,7.1,2.03,9.76c2.44,2.75,3.79,6.28,3.79,9.95,0,8.27-6.73,15-15,15-3.35,0-6.52-1.08-9.16-3.14-1.78-1.38-3.94-2.1-6.13-2.1-.96,0-1.92.14-2.86.42-3.09.92-5.55,3.28-6.59,6.34-1.94,5.67-7.27,9.48-13.25,9.48-7.72,0-14-6.28-14-14s6.28-14,14-14c2.98,0,5.82.93,8.22,2.68,1.73,1.27,3.8,1.92,5.9,1.92,1.05,0,2.12-.17,3.14-.51,3.06-1.01,5.45-3.45,6.41-6.53,1.63-5.25,6.17-9.3,11.55-10.31,3.5-.66,6.39-3.13,7.58-6.48s.51-7.09-1.8-9.81c-2.14-2.52-3.32-5.73-3.32-9.03,0-1.62.27-3.2.81-4.71,1.16-3.22.59-6.8-1.5-9.5-1.9-2.46-4.83-3.88-7.91-3.88-.3,0-.61.01-.92.04-.33.03-.66.05-.99.05-5.79,0-10.5-4.71-10.5-10.5s4.71-10.5,10.5-10.5m0-5c-8.55,0-15.5,6.95-15.5,15.5s6.95,15.5,15.5,15.5c.48,0,.97-.02,1.45-.07.15-.01.3-.02.46-.02,1.53,0,3.01.73,3.95,1.94,1.05,1.36,1.33,3.13.75,4.75-.73,2.04-1.11,4.2-1.11,6.4,0,4.49,1.6,8.84,4.5,12.27,1.15,1.35,1.49,3.23.9,4.91-.59,1.67-2.05,2.91-3.79,3.24-7.19,1.35-13.23,6.74-15.41,13.74-.48,1.54-1.67,2.76-3.2,3.26-.51.17-1.04.25-1.57.25-1.07,0-2.09-.33-2.95-.96-3.27-2.38-7.13-3.64-11.17-3.64-10.48,0-19,8.52-19,19s8.52,19,19,19c8.12,0,15.34-5.17,17.98-12.85.52-1.52,1.75-2.71,3.3-3.17.46-.14.95-.21,1.43-.21,1.1,0,2.19.37,3.07,1.05,3.53,2.74,7.76,4.18,12.23,4.18,11.03,0,20-8.97,20-20,0-4.89-1.79-9.61-5.05-13.27-1.18-1.33-1.57-3.2-1.01-4.88.55-1.69,1.98-2.96,3.71-3.33,8.72-1.85,15.04-9.67,15.04-18.59,0-10.48-8.52-19-19-19-1.23,0-2.45.12-3.65.35-.31.06-.64.09-.96.09-1.36,0-2.68-.57-3.62-1.56-1.18-1.25-1.64-2.98-1.23-4.65.3-1.21.46-2.47.46-3.74,0-8.55-6.95-15.5-15.5-15.5h0Z"/>
    </g>
    <g>
      <circle class="r" cx="317.13" cy="38.32" r="10"/>
      <path class="r" d="m317.13,30.82c4.14,0,7.5,3.36,7.5,7.5s-3.36,7.5-7.5,7.5-7.5-3.36-7.5-7.5,3.36-7.5,7.5-7.5m0-5c-6.89,0-12.5,5.61-12.5,12.5s5.61,12.5,12.5,12.5,12.5-5.61,12.5-12.5-5.61-12.5-12.5-12.5h0Z"/>
    </g>
    <g>
      <circle class="r" cx="317.13" cy="38.32" r="7"/>
      <path class="r" d="m317.13,33.82c2.49,0,4.5,2.01,4.5,4.5s-2.01,4.5-4.5,4.5-4.5-2.01-4.5-4.5,2.01-4.5,4.5-4.5m0-5c-5.24,0-9.5,4.26-9.5,9.5s4.26,9.5,9.5,9.5,9.5-4.26,9.5-9.5-4.26-9.5-9.5-9.5h0Z"/>
    </g>
    <g>
      <path class="r" d="m342.13,90.32c-.58,0-1.15-.04-1.72-.08-1-.08-1.86-.75-2.18-1.7l-.3-.89-.64.69c-.48.52-1.15.81-1.84.81-.28,0-.57-.05-.84-.15-2.57-.92-4.92-2.27-6.98-4.03-.76-.65-1.06-1.7-.76-2.65l.29-.91-.94.19c-.17.03-.33.05-.49.05-.81,0-1.59-.4-2.06-1.09-1.52-2.22-2.62-4.7-3.26-7.37-.24-.98.14-2,.94-2.59l.76-.56-.85-.39c-.91-.42-1.49-1.34-1.46-2.35.08-2.75.64-5.4,1.66-7.88.38-.93,1.28-1.54,2.29-1.55h.96s-.46-.83-.46-.83c-.49-.88-.42-1.96.2-2.76,1.66-2.15,3.68-3.96,5.99-5.39.4-.25.86-.37,1.31-.37.51,0,1.02.16,1.45.46l.76.54.11-.95c.12-1,.82-1.83,1.78-2.11,2.06-.6,4.18-.91,6.29-.91.58,0,1.15.04,1.72.08,1,.08,1.86.75,2.18,1.7l.3.89.64-.69c.48-.52,1.15-.81,1.84-.81.28,0,.57.05.84.15,2.57.92,4.92,2.27,6.98,4.03.76.65,1.07,1.7.76,2.65l-.29.9.94-.19c.17-.03.33-.05.49-.05.81,0,1.59.4,2.06,1.09,1.52,2.22,2.62,4.7,3.26,7.37.24.98-.14,2-.94,2.59l-.76.56.85.39c.91.42,1.49,1.34,1.46,2.34-.08,2.75-.64,5.4-1.66,7.88-.38.93-1.28,1.54-2.29,1.55h-.96s.46.83.46.83c.49.88.42,1.96-.2,2.75-1.66,2.15-3.67,3.96-5.99,5.39-.4.25-.86.37-1.31.37-.51,0-1.02-.16-1.45-.46l-.77-.55-.11.95c-.12,1-.82,1.83-1.78,2.11-2.07.61-4.18.91-6.29.91Zm0-27.83c-3,0-5.45,2.44-5.45,5.45s2.45,5.45,5.45,5.45,5.45-2.44,5.45-5.45-2.45-5.45-5.45-5.45Z"/>
      <path class="r" d="m342.13,48.07c.52,0,1.02.04,1.53.08l1.64,4.91,3.5-3.81c2.29.82,4.39,2.03,6.2,3.58l-1.56,4.94,5.09-1.03c1.34,1.96,2.32,4.17,2.89,6.54l-4.16,3.08,4.7,2.15c-.07,2.47-.58,4.83-1.47,7l-5.19.05,2.54,4.51c-1.47,1.9-3.27,3.52-5.32,4.79l-4.21-3-.6,5.15c-1.77.52-3.65.81-5.59.81-.52,0-1.02-.04-1.53-.08l-1.64-4.91-3.5,3.81c-2.29-.82-4.39-2.03-6.2-3.58l1.56-4.94-5.09,1.03c-1.34-1.96-2.32-4.17-2.89-6.54l4.16-3.08-4.7-2.15c.07-2.47.58-4.83,1.47-7l5.19-.05-2.54-4.51c1.47-1.9,3.27-3.52,5.32-4.79l4.21,3,.6-5.15c1.77-.52,3.65-.81,5.59-.81m0,27.82c4.39,0,7.95-3.56,7.95-7.95s-3.56-7.95-7.95-7.95-7.95,3.56-7.95,7.95,3.56,7.95,7.95,7.95m0-32.82c-2.35,0-4.7.34-6.99,1.01-1.14.33-2.09,1.05-2.73,1.99-.22-.03-.45-.05-.67-.05-.91,0-1.82.25-2.62.74-2.57,1.59-4.81,3.6-6.66,5.99-.72.93-1.07,2.07-1.04,3.2-1.01.54-1.82,1.41-2.28,2.51-1.14,2.76-1.76,5.71-1.85,8.77-.03,1.18.35,2.3,1.04,3.2-.49,1.02-.64,2.2-.36,3.35.71,2.97,1.93,5.72,3.63,8.2.67.98,1.65,1.66,2.74,1.98.2,1.11.78,2.15,1.68,2.92,2.29,1.95,4.9,3.46,7.76,4.48.55.2,1.12.29,1.68.29s1.15-.1,1.69-.29c.82.79,1.9,1.29,3.08,1.38.56.04,1.2.09,1.91.09,2.35,0,4.7-.34,6.99-1.01,1.14-.33,2.09-1.05,2.73-1.99.22.03.45.05.67.05.91,0,1.82-.25,2.62-.74,2.57-1.59,4.81-3.6,6.66-5.99.72-.93,1.07-2.07,1.04-3.2,1.01-.54,1.82-1.41,2.28-2.51,1.14-2.76,1.76-5.71,1.85-8.77.03-1.18-.35-2.3-1.04-3.2.49-1.02.64-2.2.36-3.35-.71-2.97-1.93-5.72-3.63-8.2-.67-.98-1.65-1.66-2.74-1.98-.2-1.11-.78-2.15-1.68-2.92-2.29-1.95-4.9-3.46-7.76-4.48-.55-.2-1.12-.29-1.68-.29-.58,0-1.15.1-1.69.29-.82-.79-1.9-1.29-3.08-1.38-.56-.04-1.2-.09-1.91-.09h0Zm0,27.82c-1.63,0-2.95-1.32-2.95-2.95s1.32-2.95,2.95-2.95,2.95,1.32,2.95,2.95-1.32,2.95-2.95,2.95h0Z"/>
    </g>
    <g>
      <path class="r" d="m283.41,141.32c-.66,0-1.26-.05-1.85-.09-1-.08-1.86-.75-2.18-1.7l-.43-1.29-.92,1.01c-.48.52-1.15.81-1.84.81-.28,0-.57-.05-.84-.15-2.76-.99-5.28-2.44-7.48-4.32-.76-.65-1.07-1.7-.76-2.65l.41-1.31-1.36.27c-.17.03-.33.05-.49.05-.81,0-1.59-.4-2.06-1.09-1.63-2.38-2.81-5.04-3.5-7.91-.23-.98.14-2,.94-2.59l1.1-.81-1.24-.57c-.91-.42-1.49-1.34-1.46-2.34.08-2.95.68-5.79,1.78-8.46.38-.93,1.28-1.54,2.29-1.55h1.38s-.67-1.2-.67-1.2c-.49-.88-.42-1.96.2-2.75,1.78-2.3,3.94-4.25,6.43-5.78.4-.25.86-.37,1.31-.37.51,0,1.02.16,1.45.46l1.11.79.16-1.37c.12-1,.82-1.83,1.78-2.11,2.22-.65,4.49-.98,6.75-.98.66,0,1.29.05,1.85.09,1,.08,1.86.75,2.18,1.7l.43,1.29.92-1c.48-.52,1.15-.81,1.84-.81.28,0,.57.05.84.15,2.76.99,5.28,2.44,7.49,4.32.76.65,1.06,1.7.76,2.65l-.41,1.31,1.36-.27c.17-.03.33-.05.49-.05.81,0,1.59.4,2.06,1.09,1.63,2.38,2.8,5.04,3.5,7.9.24.98-.14,2-.94,2.59l-1.1.81,1.24.57c.91.42,1.49,1.34,1.46,2.34-.08,2.95-.68,5.8-1.78,8.46-.38.93-1.28,1.54-2.29,1.55h-1.38s.67,1.2.67,1.2c.49.88.42,1.96-.2,2.76-1.78,2.3-3.94,4.25-6.43,5.78-.4.25-.86.37-1.31.37-.51,0-1.02-.16-1.45-.46l-1.11-.79-.16,1.37c-.12,1-.82,1.83-1.78,2.11-2.22.65-4.49.98-6.75.98Zm0-30.1c-3.36,0-6.1,2.74-6.1,6.1s2.74,6.1,6.1,6.1,6.1-2.74,6.1-6.1-2.74-6.1-6.1-6.1Z"/>
      <path class="r" d="m283.41,95.82c.56,0,1.11.04,1.66.08l1.78,5.31,3.79-4.12c2.48.88,4.74,2.2,6.71,3.87l-1.68,5.35,5.51-1.11c1.45,2.12,2.51,4.51,3.13,7.08l-4.5,3.33,5.09,2.33c-.08,2.68-.63,5.23-1.59,7.57l-5.62.05,2.75,4.88c-1.59,2.06-3.54,3.81-5.76,5.18l-4.56-3.25-.64,5.57c-1.92.56-3.94.88-6.04.88-.56,0-1.11-.04-1.66-.08l-1.78-5.31-3.79,4.12c-2.48-.88-4.74-2.2-6.71-3.87l1.68-5.35-5.51,1.11c-1.45-2.12-2.51-4.51-3.13-7.08l4.5-3.33-5.09-2.33c.08-2.68.63-5.23,1.59-7.57l5.62-.05-2.75-4.88c1.59-2.06,3.54-3.81,5.76-5.18l4.56,3.25.64-5.57c1.92-.56,3.94-.88,6.04-.88m0,30.1c4.75,0,8.6-3.85,8.6-8.6s-3.85-8.6-8.6-8.6-8.6,3.85-8.6,8.6,3.85,8.6,8.6,8.6m0-35.1c-2.5,0-5,.36-7.45,1.08-1.22.36-2.24,1.16-2.87,2.21-.31-.06-.62-.09-.93-.09-.91,0-1.82.25-2.62.74-2.74,1.69-5.13,3.83-7.09,6.38-.78,1-1.12,2.24-1.03,3.45-1.11.52-2.02,1.44-2.51,2.62-1.21,2.94-1.88,6.08-1.97,9.34-.04,1.27.41,2.47,1.2,3.4-.59,1.07-.78,2.34-.48,3.58.76,3.16,2.06,6.1,3.86,8.73.72,1.05,1.8,1.77,2.99,2.05.15,1.21.75,2.35,1.72,3.17,2.44,2.08,5.22,3.68,8.27,4.77.55.2,1.12.29,1.68.29.66,0,1.32-.13,1.93-.39.84.89,1.99,1.46,3.26,1.56.6.05,1.28.1,2.04.1,2.5,0,5-.36,7.45-1.08,1.22-.36,2.24-1.16,2.87-2.21.31.06.62.09.93.09.91,0,1.82-.25,2.62-.74,2.74-1.69,5.13-3.83,7.09-6.38.78-1,1.12-2.24,1.03-3.45,1.11-.52,2.02-1.44,2.51-2.62,1.21-2.94,1.88-6.08,1.97-9.34.04-1.27-.41-2.47-1.2-3.4.59-1.07.78-2.34.48-3.58-.76-3.16-2.06-6.1-3.86-8.73-.72-1.05-1.8-1.77-2.99-2.05-.15-1.21-.75-2.35-1.72-3.17-2.44-2.08-5.22-3.68-8.27-4.77-.55-.2-1.12-.29-1.68-.29-.66,0-1.32.13-1.93.39-.84-.89-1.99-1.46-3.26-1.56-.6-.05-1.28-.1-2.04-.1h0Zm0,30.1c-1.99,0-3.6-1.61-3.6-3.6s1.61-3.6,3.6-3.6,3.6,1.61,3.6,3.6-1.61,3.6-3.6,3.6h0Z"/>
    </g>
    <g>
      <circle class="r" cx="328.45" cy="106.89" r="11.5"/>
      <path class="r" d="m328.45,97.89c4.97,0,9,4.03,9,9s-4.03,9-9,9-9-4.03-9-9,4.03-9,9-9m0-5c-7.72,0-14,6.28-14,14s6.28,14,14,14,14-6.28,14-14-6.28-14-14-14h0Z"/>
    </g>
    <g>
      <circle class="r" cx="328.45" cy="106.89" r="7.9"/>
      <path class="r" d="m328.45,101.49c2.98,0,5.4,2.42,5.4,5.4s-2.42,5.4-5.4,5.4-5.4-2.42-5.4-5.4,2.42-5.4,5.4-5.4m0-5c-5.73,0-10.4,4.67-10.4,10.4s4.67,10.4,10.4,10.4,10.4-4.67,10.4-10.4-4.67-10.4-10.4-10.4h0Z"/>
    </g>
  </g>
  <g>
    <path class="u" d="m48.27,80.1v-40.44h20.28v40.44h-20.28Zm0-41.55v-15.46h6.33c7.7,0,13.96,6.26,13.96,13.96v1.5h-20.28Z"/>
    <path class="r" d="m54.59,24.59c6.88,0,12.46,5.58,12.46,12.46h0s-17.28,0-17.28,0v-12.46h4.83m12.46,16.56v37.44h-17.28v-37.44h17.28m-12.46-19.56h-7.83v60h23.28v-44.55c0-8.52-6.93-15.46-15.46-15.46h0Z"/>
  </g>
  <g>
    <path class="u" d="m156.84,80.1v-25.78h-13.36c5.85,1.64,9.3,6.09,9.3,12.4,0,8-5.96,13.38-14.82,13.38h-44.05v-21.23c0-1.95-.63-2.1-1.6-2.1-.45,0-.96.08-1.45.23v23.1h-20.28v-40.45h20.28v4.15c2.97-3.25,7.06-5.15,11.46-5.15,7.32,0,11.87,5.35,11.87,13.95v12.62h10.18c-5.8-1.65-9.22-6.14-9.22-12.54,0-7.43,6.22-13.03,14.46-13.03h27.23v-10.44h20.28v10.44h6.01v14.67h-6.01v25.78h-20.28Z"/>
    <path class="r" d="m175.62,30.71v10.44h6.01v11.67h-6.01v25.78h-17.28v-25.78h-25.56c-1.08,0-1.37.58-1.37,1.15,0,.51.29,1.15,1.37,1.15h5.25c8.64,0,13.25,4.68,13.25,11.6s-4.97,11.88-13.32,11.88h-42.55v-19.73c0-2.45-1.01-3.6-3.1-3.6-1,0-2.08.29-2.95.72v22.61h-17.28v-37.45h17.28v7.57c2.52-5.33,7.49-8.57,12.96-8.57,6.34,0,10.37,4.53,10.37,12.45v14.12h23.04c1.01,0,1.37-.58,1.37-1.16,0-.64-.43-1.15-1.37-1.15h-6.05c-8.42,0-13.03-4.75-13.03-11.73s5.69-11.53,12.96-11.53h28.73v-10.44h17.28m3-3h-23.28v10.44h-25.73c-6.77,0-12.3,3.46-14.69,8.65-1.74-6-6.31-9.65-12.6-9.65-3.65,0-7.09,1.18-9.96,3.28v-2.28h-23.28v43.45h23.28v-23.33s0,0,.01,0c.02.13.04.33.04.6v22.73h45.55c9.76,0,16.32-5.98,16.32-14.88,0-4.6-1.71-8.35-4.74-10.9h5.8v25.78h23.28v-25.78h6.01v-17.67h-6.01v-10.44h0Zm-62.93,36.01v-3.16c.72,1.2,1.62,2.26,2.68,3.16h-2.68Z"/>
  </g>
  <g>
    <g>
      <path class="p" d="m314,75.68c-2.92-.16-5.73-.63-8.36-1.42-1.24-.37-2.54-.85-3.96-1.46l-.58-.25-.35-10.3-9.03,4.11-.49-.46c-3.18-3.03-5.76-6.59-7.66-10.58l-.27-.56,5.76-7.36-8.65-2.41-.08-.66c-.56-4.48-.24-9.02.93-13.49l.16-.6,8.24-1.74-4.62-6.74.34-.55c2.44-3.98,5.59-7.4,9.37-10.16l.51-.37,7.01,3.74.77-7.89.59-.22c3.94-1.44,8.07-2.17,12.25-2.17.47,0,.95,0,1.42.03l.65.03,3.04,7.54,5.96-5.84.58.2c4.38,1.5,8.34,3.77,11.78,6.74l.5.44-2.75,8.43,9.22-.72.32.53c2.28,3.8,3.83,7.94,4.59,12.29l.12.66-8.34,5.2,8.33,5.95-.11.62c-.26,1.45-.56,2.75-.93,3.97-.8,2.68-1.97,5.34-3.49,7.92l-.34.58-10.48-1.48,2.69,10.43-.51.4c-3.31,2.61-7.01,4.6-11,5.92l-.62.2-7.22-8.03-4.59,9.6-.67-.04Zm1.9-43.68c-3.49,0-6.63,2.34-7.62,5.69-.61,2.04-.39,4.19.62,6.06,1.01,1.87,2.69,3.24,4.73,3.84.74.22,1.51.33,2.28.33,3.49,0,6.63-2.34,7.62-5.69.61-2.04.39-4.19-.62-6.06-1.01-1.87-2.69-3.24-4.73-3.84-.74-.22-1.51-.33-2.28-.33Z"/>
      <path class="u" d="m315.87,5.11c.46,0,.92,0,1.38.03l3.35,8.32,6.58-6.46c4.32,1.48,8.17,3.72,11.45,6.55l-3.01,9.22,10.09-.78c2.2,3.66,3.72,7.7,4.46,11.94l-9.04,5.63,9.03,6.45c-.23,1.29-.52,2.57-.9,3.86-.82,2.76-1.99,5.32-3.39,7.7l-11.3-1.6,2.9,11.25c-3.2,2.53-6.82,4.48-10.7,5.76l-7.78-8.66-4.95,10.34c-2.7-.14-5.42-.57-8.13-1.38-1.33-.4-2.61-.89-3.85-1.42l-.38-11.16-9.78,4.45c-3.11-2.96-5.62-6.45-7.45-10.29l6.3-8.05-9.44-2.63c-.53-4.28-.25-8.71.91-13.11l9.1-1.92-5.1-7.44c2.4-3.91,5.51-7.25,9.11-9.88l7.78,4.15.85-8.76c3.77-1.38,7.8-2.11,11.91-2.11m.04,43.81c3.86,0,7.42-2.51,8.58-6.4,1.42-4.74-1.28-9.73-6.02-11.15-.86-.26-1.72-.38-2.57-.38-3.86,0-7.42,2.51-8.58,6.4-1.42,4.74,1.28,9.73,6.02,11.15.86.26,1.72.38,2.57.38m-.04-45.81h0c-4.31,0-8.54.75-12.6,2.23l-1.18.43-.12,1.25-.56,5.78-5.14-2.74-1.11-.59-1.01.74c-3.88,2.84-7.13,6.35-9.64,10.45l-.68,1.11.73,1.07,3.41,4.97-6.17,1.3-1.21.26-.31,1.19c-1.21,4.59-1.53,9.26-.96,13.87l.16,1.32,1.28.36,6.56,1.83-4.46,5.69-.76.98.53,1.12c1.96,4.11,4.61,7.77,7.88,10.88l.98.93,1.23-.56,7.06-3.21.28,8.17.04,1.27,1.16.5c1.46.63,2.79,1.12,4.07,1.5,2.7.81,5.59,1.3,8.59,1.46l1.33.07.58-1.21,3.65-7.64,5.78,6.43.87.97,1.24-.41c4.1-1.35,7.91-3.4,11.31-6.09l1.02-.81-.33-1.26-2.15-8.35,8.34,1.18,1.33.19.68-1.15c1.56-2.65,2.76-5.39,3.59-8.14.37-1.26.69-2.59.95-4.07l.22-1.24-1.03-.74-6.59-4.71,6.5-4.05,1.14-.71-.23-1.33c-.78-4.47-2.37-8.72-4.72-12.63l-.64-1.06-1.23.1-7.11.55,2.08-6.38.41-1.26-1.01-.87c-3.54-3.05-7.61-5.39-12.11-6.93l-1.17-.4-.88.86-4.45,4.36-2.23-5.55-.48-1.2-1.29-.05c-.49-.02-.97-.03-1.46-.03h0Zm.04,43.81c-.67,0-1.34-.1-1.99-.29-3.68-1.1-5.78-4.98-4.68-8.66.87-2.93,3.62-4.97,6.67-4.97.67,0,1.34.1,1.99.29,1.78.53,3.25,1.73,4.13,3.36.88,1.64,1.08,3.52.55,5.3-.87,2.93-3.62,4.97-6.67,4.97h0Z"/>
    </g>
    <g>
      <path class="l" d="m289.95,133.89c-8.27,0-15-6.73-15-15s6.73-15,15-15c3.19,0,6.24.99,8.81,2.87,1.55,1.13,3.39,1.73,5.31,1.73.96,0,1.91-.15,2.83-.46,2.75-.91,4.91-3.11,5.77-5.88,1.74-5.6,6.58-9.92,12.33-11,3.14-.59,5.75-2.83,6.82-5.84,1.07-3.01.45-6.39-1.62-8.83-2.29-2.7-3.55-6.14-3.55-9.68,0-1.74.29-3.43.87-5.04,1.05-2.91.54-6.11-1.35-8.55-1.69-2.19-4.35-3.49-7.12-3.49-.27,0-.55.01-.83.04-.36.03-.72.05-1.08.05-6.34,0-11.5-5.16-11.5-11.5s5.16-11.5,11.5-11.5,11.5,5.16,11.5,11.5c0,.94-.11,1.87-.34,2.77-.75,3,.08,6.13,2.21,8.37,1.69,1.78,4.07,2.8,6.52,2.8.58,0,1.16-.06,1.72-.17.94-.18,1.91-.28,2.88-.28,8.27,0,15,6.73,15,15,0,7.04-5,13.21-11.88,14.67-3.12.66-5.68,2.96-6.68,6-1,3.03-.3,6.4,1.82,8.79,2.61,2.93,4.04,6.7,4.04,10.61,0,8.82-7.18,16-16,16-3.57,0-6.95-1.16-9.78-3.35-1.57-1.22-3.53-1.89-5.52-1.89-.87,0-1.74.13-2.58.38-2.78.83-5,2.96-5.93,5.7-2.08,6.07-7.79,10.15-14.2,10.15Z"/>
      <path class="u" d="m317.13,27.82c5.79,0,10.5,4.71,10.5,10.5,0,.86-.1,1.71-.31,2.53-.82,3.32.1,6.82,2.46,9.3,1.91,2.01,4.54,3.11,7.25,3.11.64,0,1.28-.06,1.91-.18.88-.17,1.78-.26,2.69-.26,7.72,0,14,6.28,14,14,0,6.57-4.66,12.33-11.08,13.7-3.48.74-6.31,3.28-7.42,6.66s-.34,7.1,2.03,9.76c2.44,2.75,3.79,6.28,3.79,9.95,0,8.27-6.73,15-15,15-3.35,0-6.52-1.08-9.16-3.14-1.78-1.38-3.94-2.1-6.13-2.1-.96,0-1.92.14-2.86.42-3.09.92-5.55,3.28-6.59,6.34-1.94,5.67-7.27,9.48-13.25,9.48-7.72,0-14-6.28-14-14s6.28-14,14-14c2.98,0,5.82.93,8.22,2.68,1.73,1.27,3.8,1.92,5.9,1.92,1.05,0,2.12-.17,3.14-.51,3.06-1.01,5.45-3.45,6.41-6.53,1.63-5.25,6.17-9.3,11.55-10.31,3.5-.66,6.39-3.13,7.58-6.48s.51-7.09-1.8-9.81c-2.14-2.52-3.32-5.73-3.32-9.03,0-1.62.27-3.2.81-4.71,1.16-3.22.59-6.8-1.5-9.5-1.9-2.46-4.83-3.88-7.91-3.88-.3,0-.61.01-.92.04-.33.03-.66.05-.99.05-5.79,0-10.5-4.71-10.5-10.5s4.71-10.5,10.5-10.5m0-2c-6.89,0-12.5,5.61-12.5,12.5s5.61,12.5,12.5,12.5c.39,0,.78-.02,1.17-.05.24-.02.49-.03.73-.03,2.46,0,4.82,1.16,6.32,3.1,1.68,2.17,2.13,5.02,1.2,7.6-.62,1.72-.93,3.53-.93,5.38,0,3.78,1.35,7.44,3.79,10.33,1.84,2.17,2.39,5.17,1.44,7.85-.95,2.68-3.27,4.66-6.06,5.19-6.11,1.15-11.25,5.73-13.1,11.68-.76,2.46-2.68,4.41-5.13,5.22-.81.27-1.66.41-2.51.41-1.71,0-3.34-.53-4.72-1.54-2.75-2-6-3.06-9.4-3.06-8.82,0-16,7.18-16,16s7.18,16,16,16c6.84,0,12.92-4.35,15.14-10.83.84-2.44,2.81-4.33,5.28-5.07.74-.22,1.51-.34,2.29-.34,1.77,0,3.51.6,4.9,1.68,3,2.33,6.59,3.56,10.39,3.56,9.37,0,17-7.63,17-17,0-4.16-1.53-8.16-4.3-11.28-1.89-2.12-2.51-5.11-1.62-7.81s3.16-4.74,5.94-5.33c7.34-1.56,12.67-8.14,12.67-15.65,0-8.82-7.18-16-16-16-1.03,0-2.07.1-3.07.3-.5.1-1.02.15-1.53.15-2.18,0-4.3-.91-5.8-2.49-1.89-1.99-2.63-4.77-1.97-7.44.24-.98.37-1.99.37-3.01,0-6.89-5.61-12.5-12.5-12.5h0Z"/>
    </g>
    <path class="t" d="m317.13,30.82c4.14,0,7.5,3.36,7.5,7.5s-3.36,7.5-7.5,7.5-7.5-3.36-7.5-7.5,3.36-7.5,7.5-7.5m0-1c-4.69,0-8.5,3.81-8.5,8.5s3.81,8.5,8.5,8.5,8.5-3.81,8.5-8.5-3.81-8.5-8.5-8.5h0Z"/>
    <path class="m" d="m317.13,33.82c2.49,0,4.5,2.01,4.5,4.5s-2.01,4.5-4.5,4.5-4.5-2.01-4.5-4.5,2.01-4.5,4.5-4.5m0-1c-3.03,0-5.5,2.47-5.5,5.5s2.47,5.5,5.5,5.5,5.5-2.47,5.5-5.5-2.47-5.5-5.5-5.5h0Z"/>
    <g>
      <path class="v" d="m342.13,88.82c-.54,0-1.08-.04-1.61-.08l-.66-.05-1.32-3.93-2.81,3.05-.62-.22c-2.4-.86-4.59-2.12-6.51-3.76l-.5-.43,1.25-3.96-4.08.82-.37-.55c-1.42-2.07-2.44-4.38-3.04-6.87l-.16-.64,3.33-2.47-3.77-1.72.02-.66c.07-2.57.6-5.04,1.55-7.35l.25-.61,4.16-.04-2.03-3.61.41-.52c1.55-2,3.43-3.69,5.59-5.03l.56-.35,3.37,2.4.48-4.13.64-.19c1.93-.56,3.9-.85,5.87-.85.54,0,1.07.04,1.61.08l.66.05,1.32,3.93,2.81-3.05.62.22c2.4.86,4.59,2.12,6.51,3.76l.5.43-1.25,3.96,4.08-.82.37.55c1.42,2.07,2.44,4.38,3.04,6.87l.16.64-3.33,2.47,3.77,1.72-.02.66c-.07,2.57-.59,5.04-1.55,7.35l-.25.61-4.16.04,2.03,3.61-.41.52c-1.55,2-3.43,3.69-5.59,5.03l-.56.35-3.37-2.4-.48,4.13-.64.19c-1.93.56-3.9.85-5.87.85Zm0-27.83c-3.83,0-6.95,3.12-6.95,6.95s3.12,6.95,6.95,6.95,6.95-3.12,6.95-6.95-3.12-6.95-6.95-6.95Z"/>
      <path class="u" d="m342.13,48.07c.52,0,1.02.04,1.53.08l1.64,4.91,3.5-3.81c2.29.82,4.39,2.03,6.2,3.58l-1.56,4.94,5.09-1.03c1.34,1.96,2.32,4.17,2.89,6.54l-4.16,3.08,4.7,2.15c-.07,2.47-.58,4.83-1.47,7l-5.19.05,2.54,4.51c-1.47,1.9-3.27,3.52-5.32,4.79l-4.21-3-.6,5.15c-1.77.52-3.65.81-5.59.81-.52,0-1.02-.04-1.53-.08l-1.64-4.91-3.5,3.81c-2.29-.82-4.39-2.03-6.2-3.58l1.56-4.94-5.09,1.03c-1.34-1.96-2.32-4.17-2.89-6.54l4.16-3.08-4.7-2.15c.07-2.47.58-4.83,1.47-7l5.19-.05-2.54-4.51c1.47-1.9,3.27-3.52,5.32-4.79l4.21,3,.6-5.15c1.77-.52,3.65-.81,5.59-.81m0,27.82c4.39,0,7.95-3.56,7.95-7.95s-3.56-7.95-7.95-7.95-7.95,3.56-7.95,7.95,3.56,7.95,7.95,7.95m0-29.82c-2.06,0-4.13.3-6.15.89l-1.27.37-.15,1.32-.21,1.79-1.46-1.04-1.08-.77-1.13.7c-2.26,1.39-4.23,3.17-5.86,5.27l-.81,1.05.65,1.16.88,1.56-1.81.02h-1.32s-.51,1.24-.51,1.24c-1,2.42-1.55,5.02-1.62,7.71l-.04,1.32,1.2.55,1.62.74-1.44,1.07-1.06.79.31,1.29c.63,2.61,1.7,5.03,3.19,7.2l.75,1.09,1.3-.26,1.77-.36-.54,1.71-.4,1.26,1.01.86c2.01,1.71,4.31,3.04,6.82,3.94l1.25.45.9-.98,1.21-1.32.57,1.7.42,1.26,1.32.1c.54.04,1.09.08,1.68.08,2.06,0,4.13-.3,6.15-.89l1.27-.37.15-1.32.21-1.79,1.46,1.04,1.08.77,1.13-.7c2.26-1.39,4.23-3.17,5.86-5.27l.81-1.05-.65-1.16-.88-1.56,1.81-.02h1.33s.51-1.24.51-1.24c1-2.43,1.55-5.02,1.62-7.71l.04-1.32-1.2-.55-1.62-.74,1.44-1.07,1.06-.79-.31-1.29c-.63-2.61-1.7-5.03-3.19-7.2l-.75-1.09-1.3.26-1.77.36.54-1.71.4-1.26-1.01-.86c-2.01-1.71-4.31-3.04-6.82-3.94l-1.25-.45-.9.98-1.21,1.32-.57-1.7-.42-1.26-1.32-.1c-.53-.04-1.09-.08-1.68-.08h0Zm0,27.82c-3.28,0-5.95-2.67-5.95-5.95s2.67-5.95,5.95-5.95,5.95,2.67,5.95,5.95-2.67,5.95-5.95,5.95h0Z"/>
    </g>
    <g>
      <path class="n" d="m283.41,139.82c-.58,0-1.16-.04-1.73-.09l-.66-.05-1.45-4.33-3.09,3.36-.62-.22c-2.59-.93-4.95-2.29-7.02-4.05l-.5-.43,1.37-4.36-4.49.91-.37-.55c-1.53-2.23-2.63-4.72-3.28-7.41l-.15-.64,3.67-2.72-4.15-1.9.02-.66c.08-2.77.64-5.43,1.67-7.93l.25-.61,4.59-.04-2.24-3.98.41-.52c1.67-2.16,3.69-3.98,6.03-5.42l.56-.35,3.72,2.65.53-4.55.64-.19c2.08-.61,4.21-.92,6.33-.92.58,0,1.16.04,1.73.09l.66.05,1.45,4.33,3.09-3.36.62.22c2.59.93,4.95,2.29,7.02,4.05l.5.43-1.37,4.36,4.5-.91.37.55c1.53,2.23,2.63,4.72,3.27,7.41l.16.64-3.67,2.72,4.15,1.9-.02.66c-.08,2.77-.64,5.44-1.67,7.93l-.25.61-4.59.04,2.24,3.98-.41.52c-1.67,2.16-3.7,3.98-6.03,5.42l-.56.35-3.72-2.65-.53,4.55-.64.19c-2.08.61-4.21.92-6.33.92Zm0-30.1c-4.19,0-7.6,3.41-7.6,7.6s3.41,7.6,7.6,7.6,7.6-3.41,7.6-7.6-3.41-7.6-7.6-7.6Z"/>
      <path class="u" d="m283.41,95.82c.56,0,1.11.04,1.66.08l1.78,5.31,3.79-4.12c2.48.88,4.74,2.2,6.71,3.87l-1.68,5.35,5.51-1.11c1.45,2.12,2.51,4.51,3.13,7.08l-4.5,3.33,5.09,2.33c-.08,2.68-.63,5.23-1.59,7.57l-5.62.05,2.75,4.88c-1.59,2.06-3.54,3.81-5.76,5.18l-4.56-3.25-.64,5.57c-1.92.56-3.94.88-6.04.88-.56,0-1.11-.04-1.66-.08l-1.78-5.31-3.79,4.12c-2.48-.88-4.74-2.2-6.71-3.87l1.68-5.35-5.51,1.11c-1.45-2.12-2.51-4.51-3.13-7.08l4.5-3.33-5.09-2.33c.08-2.68.63-5.23,1.59-7.57l5.62-.05-2.75-4.88c1.59-2.06,3.54-3.81,5.76-5.18l4.56,3.25.64-5.57c1.92-.56,3.94-.88,6.04-.88m0,30.1c4.75,0,8.6-3.85,8.6-8.6s-3.85-8.6-8.6-8.6-8.6,3.85-8.6,8.6,3.85,8.6,8.6,8.6m0-32.1c-2.21,0-4.44.32-6.61.96l-1.27.37-.15,1.32-.26,2.21-1.8-1.28-1.08-.77-1.13.7c-2.43,1.5-4.55,3.4-6.29,5.66l-.81,1.05.65,1.16,1.09,1.93-2.23.02h-1.32s-.51,1.24-.51,1.24c-1.07,2.6-1.66,5.39-1.74,8.28l-.04,1.32,1.2.55,2.01.92-1.78,1.32-1.06.79.31,1.29c.68,2.8,1.83,5.41,3.42,7.74l.75,1.09,1.3-.26,2.19-.44-.67,2.12-.4,1.26,1.01.86c2.16,1.84,4.63,3.26,7.33,4.23l1.25.45.9-.98,1.5-1.63.7,2.1.42,1.26,1.32.1c.58.04,1.17.09,1.81.09,2.21,0,4.44-.32,6.61-.96l1.27-.37.15-1.32.26-2.21,1.8,1.28,1.08.77,1.13-.7c2.43-1.5,4.55-3.4,6.29-5.66l.81-1.05-.65-1.16-1.09-1.93,2.23-.02h1.32s.51-1.24.51-1.24c1.07-2.6,1.66-5.39,1.74-8.28l.04-1.32-1.2-.55-2.01-.92,1.78-1.32,1.06-.79-.31-1.29c-.68-2.8-1.83-5.41-3.42-7.74l-.75-1.09-1.3.26-2.19.44.67-2.12.4-1.26-1.01-.86c-2.16-1.84-4.63-3.26-7.33-4.23l-1.25-.45-.9.98-1.5,1.63-.7-2.1-.42-1.26-1.32-.1c-.58-.04-1.17-.09-1.81-.09h0Zm0,30.1c-3.64,0-6.6-2.96-6.6-6.6s2.96-6.6,6.6-6.6,6.6,2.96,6.6,6.6-2.96,6.6-6.6,6.6h0Z"/>
    </g>
    <path class="q" d="m328.45,97.89c4.97,0,9,4.03,9,9s-4.03,9-9,9-9-4.03-9-9,4.03-9,9-9m0-1c-5.51,0-10,4.49-10,10s4.49,10,10,10,10-4.49,10-10-4.49-10-10-10h0Z"/>
    <path class="o" d="m328.45,101.49c2.98,0,5.4,2.42,5.4,5.4s-2.42,5.4-5.4,5.4-5.4-2.42-5.4-5.4,2.42-5.4,5.4-5.4m0-1c-3.53,0-6.4,2.87-6.4,6.4s2.87,6.4,6.4,6.4,6.4-2.87,6.4-6.4-2.87-6.4-6.4-6.4h0Z"/>
  </g>
  <g>
    <path class="u" d="m203.2,81.1c-12.47,0-21.52-8.96-21.52-21.3s8.99-21.16,21.37-21.16c14.78,0,21.52,11.42,21.52,22.02v1.45h.06l-.21,1.69c-1.29,10.18-10.02,17.3-21.22,17.3Zm-4.05-18.94c.69,1.61,2.09,2.47,4.05,2.47,2.44,0,3.69-1.13,4-1.72l.4-.75h-8.45Zm6.42-7.18c-.64-.45-1.46-.67-2.44-.67s-1.83.23-2.51.67h4.96Z"/>
    <path class="r" d="m203.05,40.15c14.47,0,20.02,11.3,20.02,20.52h-25.85c.43,3.53,2.74,5.47,5.98,5.47,2.81,0,4.68-1.3,5.33-2.52h14.4c-1.15,9.07-8.79,15.99-19.73,15.99-11.67,0-20.02-8.5-20.02-19.8s7.85-19.66,19.87-19.66m-5.4,16.35h10.73c-.79-2.38-2.67-3.67-5.26-3.67s-4.61,1.37-5.47,3.67m5.4-19.35c-13.04,0-22.87,9.74-22.87,22.66s9.9,22.8,23.02,22.8c11.98,0,21.31-7.65,22.71-18.61l.04-.33h.13v-.99l.26-2.06h-.26c-.02-11.32-7.23-23.47-23.02-23.47h0Z"/>
  </g>
  <g>
    <path class="u" d="m225.89,80.1v-40.44h20.28v40.44h-20.28Zm0-41.55v-15.46h6.32c7.7,0,13.96,6.26,13.96,13.96v1.5h-20.28Z"/>
    <path class="r" d="m232.21,24.59c6.88,0,12.46,5.58,12.46,12.46h0s-17.28,0-17.28,0v-12.46h4.82m12.46,16.56v37.44h-17.28v-37.44h17.28m-12.46-19.56h-7.82v60h23.28v-44.55c0-8.52-6.93-15.46-15.46-15.46h0Z"/>
  </g>
  <g>
    <path class="u" d="m141.36,138.1v-40.44h20.28v40.44h-20.28Zm0-41.55v-15.46h6.33c7.7,0,13.96,6.26,13.96,13.96v1.5h-20.28Z"/>
    <path class="r" d="m147.69,82.59c6.88,0,12.46,5.58,12.46,12.46h0s-17.28,0-17.28,0v-12.46h4.83m12.46,16.56v37.44h-17.28v-37.44h17.28m-12.46-19.56h-7.83v60h23.28v-44.55c0-8.52-6.93-15.46-15.46-15.46h0Z"/>
  </g>
  <g>
    <polygon class="s" points="45.95 75.68 45.95 149.22 3.61 149.22 3.61 128.51 20.24 128.51 20.24 122.43 3.61 122.43 3.61 103.79 20.24 103.79 20.24 97.68 3.61 97.68 3.61 25.05 45.95 25.05 45.95 45.78 24.75 45.78 24.75 51.84 45.95 51.84 45.95 69.39 24.75 69.39 24.75 75.68 45.95 75.68"/>
    <polygon class="x" points="45.95 75.68 45.95 149.22 3.61 149.22 3.61 128.51 20.24 128.51 20.24 122.43 3.61 122.43 3.61 103.79 20.24 103.79 20.24 97.68 3.61 97.68 3.61 25.05 45.95 25.05 45.95 45.78 24.75 45.78 24.75 51.84 45.95 51.84 45.95 69.39 24.75 69.39 24.75 75.68 45.95 75.68"/>
    <polygon class="y" points="3.61 151.22 1.61 149.22 1.61 128.51 3.61 126.51 18.24 126.51 18.24 124.43 3.61 124.43 1.61 122.43 1.61 103.79 3.61 101.79 18.24 101.79 18.24 99.68 3.61 99.68 1.61 97.68 1.61 25.05 3.61 23.05 45.95 23.05 47.95 25.05 47.95 45.78 45.95 47.78 26.75 47.78 26.75 49.84 45.95 49.84 47.95 51.84 47.95 69.39 45.95 71.39 26.75 71.39 26.75 73.68 45.95 73.68 47.95 75.68 47.95 149.22 45.95 151.22 3.61 151.22"/>
  </g>
  <g>
    <path class="u" d="m270.54,80.1v-21.23c0-2.1-.81-2.1-1.6-2.1-.25,0-.29,0-.45.09v23.24h-20.28v-40.44h20.28v4.14c2.97-3.25,7.06-5.15,11.46-5.15,7.32,0,11.87,5.35,11.87,13.96v27.49h-21.28Z"/>
    <path class="r" d="m279.95,40.15c6.34,0,10.37,4.54,10.37,12.46v25.99h-18.28v-19.73c0-2.45-1.01-3.6-3.1-3.6-1.01,0-1.09.29-1.95.72v22.61h-17.28v-37.44h17.28v7.56c2.52-5.33,7.49-8.57,12.96-8.57m0-3c-3.65,0-7.09,1.18-9.96,3.28v-2.28h-23.28v43.44h46.61v-28.99c0-9.39-5.25-15.46-13.37-15.46h0Z"/>
  </g>
  <g>
    <path class="w" d="m113.6,134.02c-2.21-.09-4.37-.49-6.44-1.21l-1.04-.36.06-2.2-1.71,1.46-.92-.52c-1.88-1.07-3.6-2.41-5.1-3.98l-.77-.81,1.17-2.06-2.36.55-.57-.88c-1.16-1.8-2.05-3.75-2.64-5.81l-.31-1.07,2.17-1.4-2.54-.65-.09-1.06c-.04-.55-.09-1.15-.09-1.77,0-1.5.16-3.02.47-4.51l.23-1.08,2.78-.25-2.08-1.88.44-.99c.84-1.92,1.96-3.7,3.31-5.3l.7-.83,2.7,1.1-1-2.72.86-.67c1.65-1.29,3.48-2.34,5.42-3.12l1-.4,1.9,2.25.39-2.89,1.08-.19c1.35-.24,2.6-.35,3.82-.35l1.59.07.08,1.43v16.77l-1.63-.04h-.1c-1.98.02-3.58,1.62-3.58,3.58s1.6,3.56,3.57,3.59c.06,0,.12-.01.18-.02l1.55-.05v14.62l-1.47,3.71-1.06-.04Z"/>
    <path class="u" d="m114.47,91.89c.06,0,.11,0,.17,0v15.23c-.06,0-.11-.02-.17-.02-2.84,0-5.14,2.28-5.14,5.1s2.3,5.1,5.14,5.1c.06,0,.11-.01.17-.02v12.78l-.98,2.46c-2.1-.08-4.11-.47-6-1.13l.13-4.49-3.48,2.98c-1.77-1-3.36-2.25-4.75-3.71l2.3-4.06-4.66,1.08c-1.07-1.65-1.9-3.47-2.46-5.41l4.12-2.65-4.83-1.24c-.04-.55-.08-1.1-.08-1.65,0-1.44.16-2.84.44-4.2l5.09-.47-3.83-3.45c.79-1.8,1.83-3.46,3.08-4.94l4.84,1.98-1.8-4.89c1.53-1.19,3.22-2.18,5.05-2.9l3.38,4,.7-5.15c1.16-.2,2.35-.33,3.57-.33m0-3c-1.31,0-2.64.12-4.08.37l-2.16.38-.08.63-.41-.49-2.01.8c-2.08.83-4.02,1.95-5.79,3.33l-1.72,1.35.2.55-.55-.23-1.41,1.66c-1.45,1.71-2.64,3.62-3.54,5.67l-.87,1.99.34.31-.46.04-.46,2.16c-.34,1.59-.51,3.21-.51,4.82,0,.68.05,1.34.09,1.9l.17,2.13.25.06-.22.14.61,2.14c.63,2.2,1.58,4.29,2.82,6.21l1.14,1.77h.06s-.04.05-.04.05l1.54,1.61c1.6,1.68,3.44,3.11,5.45,4.25l1.77,1h0s.04.02.04.02h.02s0,0,0,0l2.01.7c2.2.77,4.51,1.2,6.87,1.3l2.12.08.78-1.97.98-2.46.21-.53v-16.45l-3.09.1c-.06,0-.13,0-.19.01-1.13-.06-2.02-.98-2.02-2.09s.9-2.03,2.02-2.09c.06,0,.13,0,.19.01l3.1.1v-21.3l-2.98-.02s-.12,0-.19,0h0Z"/>
    <path class="r" d="m114.47,89.89s.15,0,.18,0c1.07.05,1.98.93,1.98,2v15.23c0,.54-.22,1.06-.6,1.43-.37.36-.88.57-1.4.57-.02,0-.18,0-.25-.02-1.69.05-3.06,1.42-3.06,3.09s1.36,3.05,3.05,3.09c.06,0,.23-.02.26-.02.52,0,1.02.2,1.39.56.39.38.61.9.61,1.44v12.78c0,.25-.05.5-.14.74l-.98,2.46c-.3.76-1.04,1.26-1.86,1.26-.03,0-.05,0-.08,0-2.26-.09-4.47-.5-6.58-1.24-.82-.28-1.36-1.06-1.34-1.92l-.05.04c-.37.32-.83.48-1.3.48-.34,0-.68-.09-.99-.26-1.92-1.09-3.68-2.46-5.21-4.07-.61-.64-.73-1.6-.29-2.37l.06-.1-.23.05c-.15.03-.3.05-.45.05-.67,0-1.31-.34-1.68-.91-1.19-1.84-2.1-3.84-2.7-5.94-.24-.85.1-1.75.84-2.23l.27-.17-.4-.1c-.83-.21-1.43-.93-1.5-1.77-.04-.54-.09-1.17-.09-1.82,0-1.54.16-3.09.49-4.61.18-.86.9-1.5,1.77-1.58l.54-.05-.43-.39c-.64-.58-.84-1.5-.49-2.29.86-1.96,2-3.79,3.39-5.43.39-.46.95-.71,1.53-.71.25,0,.51.05.76.15l.64.26-.23-.63c-.3-.82-.04-1.73.65-2.27,1.69-1.32,3.56-2.4,5.54-3.19.24-.1.49-.14.74-.14.58,0,1.14.25,1.53.71l.47.56.09-.68c.12-.86.78-1.55,1.64-1.7,1.38-.24,2.66-.36,3.91-.36m0-4c-1.49,0-2.99.14-4.6.42-.94.16-1.8.54-2.53,1.08-.17-.01-.34-.02-.51-.02-.76,0-1.51.14-2.22.43-2.34.93-4.54,2.2-6.53,3.75-.75.58-1.32,1.31-1.71,2.12-.84.36-1.6.92-2.21,1.64-1.63,1.93-2.98,4.08-3.99,6.4-.37.85-.54,1.75-.51,2.63-.55.7-.94,1.53-1.14,2.45-.38,1.79-.57,3.62-.57,5.44,0,.79.05,1.52.1,2.14.07.89.34,1.73.76,2.47-.13.84-.08,1.73.16,2.59.71,2.48,1.78,4.84,3.19,7.01.46.71,1.06,1.31,1.74,1.76.28.77.72,1.48,1.31,2.11,1.81,1.9,3.87,3.51,6.14,4.79.7.4,1.48.65,2.28.74.58.53,1.27.94,2.05,1.21,2.48.87,5.09,1.36,7.74,1.46.08,0,.16,0,.23,0,2.47,0,4.66-1.49,5.58-3.79l.98-2.46c.28-.71.42-1.45.42-2.22v-12.78c0-1.62-.67-3.19-1.83-4.32-.3-.29-.63-.55-.97-.76.35-.22.68-.48.99-.78,1.15-1.12,1.81-2.69,1.81-4.3v-15.23c0-3.21-2.55-5.84-5.8-6-.06,0-.3,0-.37,0h0Z"/>
  </g>
  <g>
    <path class="u" d="m223.05,139.25c-1.93,0-3.91-.24-5.89-.72-3.82-.92-7.17-2.65-9.86-5.07v4.64h-21.29v-21.23c0-2.1-.77-2.1-1.59-2.1-.25,0-.3,0-.45.09v23.24h-20.29v-40.45h20.29v4.14c2.97-3.25,7.06-5.14,11.46-5.14,4.89,0,8.67,2.49,10.54,6.8,3.84-4.42,9.31-6.91,15.38-6.91,1.83,0,3.72.23,5.6.68,6.8,1.63,11.79,5.45,14.42,11.04,2.13,4.51,2.62,10.12,1.34,15.4l-.34,1.41h.06s-.6,1.61-.6,1.61c-2.94,7.75-10.13,12.57-18.78,12.57Zm-5.4-20.08c.3,1.73,1.45,2.89,3.36,3.35.54.13,1.06.2,1.57.2,1.4,0,2.35-.5,2.73-.93l.57-.64-8.22-1.98Zm7.93-5.47c-.52-.59-1.26-1-2.22-1.23-.42-.1-.84-.15-1.24-.15-.48,0-.93.08-1.35.23l4.81,1.16Z"/>
    <path class="r" d="m221.35,98.04c1.69,0,3.44.21,5.24.64,14.07,3.38,16.82,15.67,14.66,24.63l-25.13-6.05c-.4,3.53,1.38,5.96,4.53,6.72.68.16,1.32.24,1.92.24,1.79,0,3.16-.66,3.85-1.44l14,3.37c-2.66,7.02-9.23,11.6-17.38,11.6-1.78,0-3.64-.22-5.54-.68-5.03-1.21-9.04-3.9-11.71-7.47v7h-18.29v-19.73c0-2.45-1-3.6-3.09-3.6-1.01,0-1.09.28-1.95.72v22.61h-17.29v-37.45h17.29v7.56c2.52-5.32,7.48-8.56,12.96-8.56s8.85,3.05,9.99,8.53c3.41-5.3,9.14-8.64,15.94-8.64m6.6,17.78c-.21-2.5-1.73-4.2-4.25-4.81-.55-.13-1.08-.2-1.59-.2-1.9,0-3.5.89-4.59,2.49l10.43,2.52m-6.6-20.78s0,0,0,0c-5.77,0-11.03,2.09-15.02,5.86-2.32-3.68-6.14-5.75-10.9-5.75-3.65,0-7.09,1.18-9.96,3.28v-2.28h-23.29v43.45h46.62v-3.08c2.36,1.58,5.05,2.75,8.01,3.46,2.1.5,4.2.76,6.24.76,9.29,0,17.02-5.19,20.18-13.53l.12-.31.12.03.23-.95.74-1.95-.25-.06c1.34-5.59.81-11.54-1.46-16.35-1.98-4.19-6.26-9.66-15.43-11.86-1.99-.48-3.99-.72-5.95-.72h0Z"/>
  </g>
  <g>
    <path class="u" d="m244.01,138.1v-13.61h17.13c.28,0,.47-.03.61-.06-.12-.02-.3-.05-.55-.05h-2.44c-9.32,0-15.58-5.28-15.58-13.14s6.26-13.14,15.58-13.14h20.4v13.61h-10.31c7.14,1.3,11.86,6.29,11.86,13,0,7.88-6.45,13.39-15.69,13.39h-21.01Z"/>
    <path class="r" d="m277.66,99.6v10.61h-14.75c-1.33,0-2.11.49-2.11,1.33,0,.79.78,1.33,2.11,1.33h2.11c8.76,0,14.19,5.08,14.19,11.84s-5.43,11.89-14.19,11.89h-19.51v-10.61h15.63c1.77,0,2.33-.84,2.33-1.53,0-.74-.55-1.58-2.27-1.58h-2.44c-8.59,0-14.08-4.74-14.08-11.64s5.49-11.64,14.08-11.64h18.9m3-3h-21.9c-10.22,0-17.08,5.88-17.08,14.64,0,5.08,2.31,9.19,6.24,11.75h-5.41v16.61h22.51c10.12,0,17.19-6.12,17.19-14.89,0-4.84-2.17-8.87-5.82-11.5h4.27v-16.61h0Zm-19.25,29.3h0Z"/>
  </g>
  <g>
    <path class="u" d="m48.45,151.39v-13.99l68.8-.2c.15-.07.52-.7.52-1.59v-48.28h21.56v48.57c0,7.12-3.08,15.61-17.77,15.61l-73.11-.11Z"/>
    <path class="r" d="m137.83,88.82v47.07c0,9.07-5.26,14.11-16.27,14.11l-71.61-.11v-11l67.3-.2c1.3,0,2.02-1.65,2.02-3.09v-46.78h18.56m3-3h-24.56v49.78s0,.06,0,.09l-66.33.2h-2.99v17h3s71.61.11,71.61.11c12.43,0,19.27-6.08,19.27-17.11v-50.07h0Z"/>
  </g>
  <g>
    <path class="u" d="m70.78,136.77v-21.23c0-2.1-.76-2.1-1.49-2.1-.43,0-.9.08-1.35.22v23.11h-19.67v-40.45h19.67v4.04c2.86-3.19,6.79-5.04,11-5.04,7.1,0,11.5,5.35,11.5,13.95v27.5h-19.67Z"/>
    <path class="r" d="m78.94,96.82c6.12,0,10,4.53,10,12.45v26h-16.67v-19.73c0-2.45-.97-3.6-2.99-3.6-.96,0-2.01.28-2.85.72v22.61h-16.67v-37.45h16.67v7.56c2.43-5.32,7.23-8.56,12.5-8.56m0-3c-3.47,0-6.75,1.13-9.5,3.16v-2.16h-22.67v43.45h45.18v-29c0-9.39-5.1-15.45-13-15.45h0Z"/>
  </g>
</svg>