<?xml version="1.0" encoding="UTF-8" standalone="no"?>
<svg
   id="a"
   data-name="Layer 1"
   viewBox="0 0 119.95 124.86"
   version="1.1"
   sodipodi:docname="EE_logo-light.svg"
   inkscape:version="1.4 (e7c3feb100, 2024-10-09)"
   inkscape:export-filename="EE_logo-light.png"
   inkscape:export-xdpi="198.27422"
   inkscape:export-ydpi="198.27422"
   xmlns:inkscape="http://www.inkscape.org/namespaces/inkscape"
   xmlns:sodipodi="http://sodipodi.sourceforge.net/DTD/sodipodi-0.dtd"
   xmlns:xlink="http://www.w3.org/1999/xlink"
   xmlns="http://www.w3.org/2000/svg"
   xmlns:svg="http://www.w3.org/2000/svg">
  <sodipodi:namedview
     id="namedview22"
     pagecolor="#505050"
     bordercolor="#ffffff"
     borderopacity="1"
     inkscape:showpageshadow="0"
     inkscape:pageopacity="0"
     inkscape:pagecheckerboard="1"
     inkscape:deskcolor="#505050"
     inkscape:zoom="6.6394361"
     inkscape:cx="60.020157"
     inkscape:cy="62.43"
     inkscape:window-width="1920"
     inkscape:window-height="1055"
     inkscape:window-x="0"
     inkscape:window-y="0"
     inkscape:window-maximized="1"
     inkscape:current-layer="a" />
  <defs
     id="defs20">
    <style
       id="style1">
      .e {
        fill: url(#c);
      }

      .e, .f, .g, .h {
        stroke-width: 0px;
      }

      .f {
        fill: url(#b);
      }

      .g {
        fill: url(#d);
      }

      .h {
        fill: #231f20;
      }
    </style>
    <radialGradient
       id="b"
       data-name="Steel Radial"
       cx="85.14"
       cy="38.8"
       fx="85.14"
       fy="38.8"
       r="34.81"
       gradientUnits="userSpaceOnUse">
      <stop
         offset="0"
         stop-color="#e5e2df"
         id="stop1" />
      <stop
         offset="0"
         stop-color="#f1efed"
         id="stop2" />
      <stop
         offset="0"
         stop-color="#fff"
         id="stop3" />
      <stop
         offset=".13"
         stop-color="#f0f0f0"
         id="stop4" />
      <stop
         offset=".37"
         stop-color="#c9cacb"
         id="stop5" />
      <stop
         offset=".52"
         stop-color="#adaeb0"
         id="stop6" />
      <stop
         offset=".6"
         stop-color="#a3a5a7"
         id="stop7" />
      <stop
         offset=".74"
         stop-color="#898d8f"
         id="stop8" />
      <stop
         offset=".91"
         stop-color="#5e6669"
         id="stop9" />
      <stop
         offset="1"
         stop-color="#465053"
         id="stop10" />
    </radialGradient>
    <radialGradient
       id="c"
       data-name="Steel Radial"
       cx="34.56"
       cy="86.09"
       fx="34.56"
       fy="86.09"
       r="34.67"
       xlink:href="#b"
       gradientTransform="translate(0,1)" />
    <linearGradient
       id="d"
       data-name="Blue Steel"
       x1="34.97"
       y1="61.43"
       x2="83.97"
       y2="61.43"
       gradientUnits="userSpaceOnUse">
      <stop
         offset="0"
         stop-color="#7da7d9"
         id="stop11" />
      <stop
         offset=".07"
         stop-color="#35517d"
         id="stop12" />
      <stop
         offset=".5"
         stop-color="#dee6f5"
         id="stop13" />
      <stop
         offset=".62"
         stop-color="#bacdea"
         id="stop14" />
      <stop
         offset=".67"
         stop-color="#b6cae8"
         id="stop15" />
      <stop
         offset=".71"
         stop-color="#aac3e5"
         id="stop16" />
      <stop
         offset=".76"
         stop-color="#96b6df"
         id="stop17" />
      <stop
         offset=".81"
         stop-color="#7aa5d8"
         id="stop18" />
      <stop
         offset=".81"
         stop-color="#7aa5d8"
         id="stop19" />
      <stop
         offset="1"
         stop-color="#174d6b"
         id="stop20" />
    </linearGradient>
    <radialGradient
       inkscape:collect="always"
       xlink:href="#b"
       id="radialGradient22"
       gradientUnits="userSpaceOnUse"
       cx="85.14"
       cy="38.8"
       fx="85.14"
       fy="38.8"
       r="34.81"
       gradientTransform="translate(0,1)" />
  </defs>
  <path
     class="f"
     d="m 119.95,39.76 c 0,-1.34 -0.09,-2.65 -0.24,-3.95 l -10.5,-3.6 7.05,-7.98 c -1.93,-3.85 -4.54,-7.29 -7.69,-10.17 L 99.12,17.7 99.36,8 C 95.41,6.23 91.08,5.18 86.52,5 l -4.46,8.07 -5.59,-7.02 c -4.46,1.14 -8.56,3.13 -12.14,5.8 l 1.69,8.64 -8.64,-1.75 c -2.7,3.55 -4.72,7.63 -5.9,12.07 l 7.02,5.67 -8.17,4.44 c 0.15,4.55 1.15,8.88 2.88,12.83 l 9.8,-0.18 -3.74,9.51 c 2.85,3.15 6.26,5.78 10.08,7.73 l 8.1,-7.06 3.55,10.59 c 1.35,0.16 2.71,0.26 4.1,0.26 2.82,0 5.55,-0.37 8.18,-1.01 l 1.78,-11.33 9.93,6.07 c 3.35,-2.33 6.26,-5.24 8.6,-8.58 l -6,-9.95 11.29,-1.7 c 0.66,-2.68 1.05,-5.47 1.05,-8.35 z m -34.81,9 c -4.95,0 -8.96,-4.01 -8.96,-8.96 0,-4.95 4.01,-8.96 8.96,-8.96 4.95,0 8.96,4.01 8.96,8.96 0,4.95 -4.01,8.96 -8.96,8.96 z"
     id="path20"
     style="fill:url(#radialGradient22);stroke:#ffffff;stroke-width:4;stroke-linejoin:round;stroke-dasharray:none;stroke-opacity:1;paint-order:stroke fill markers" />
  <path
     class="e"
     d="m 68.21,97.07 c 0.38,-1.28 0.67,-2.57 0.9,-3.86 l -9.03,-6.45 9.04,-5.63 C 68.38,76.89 66.85,72.84 64.66,69.19 l -10.09,0.78 3.01,-9.22 C 54.31,57.92 50.45,55.68 46.13,54.2 l -6.58,6.46 -3.35,-8.32 c -4.6,-0.18 -9.1,0.55 -13.29,2.08 l -0.85,8.76 -7.78,-4.15 c -3.6,2.63 -6.71,5.96 -9.11,9.88 l 5.1,7.44 -9.1,1.92 C 0,82.68 -0.27,87.11 0.26,91.39 l 9.44,2.63 -6.3,8.05 c 1.83,3.84 4.34,7.33 7.45,10.29 l 9.78,-4.45 0.38,11.16 c 1.24,0.54 2.52,1.02 3.85,1.42 2.71,0.81 5.43,1.23 8.13,1.38 l 4.95,-10.34 7.78,8.66 c 3.87,-1.28 7.49,-3.23 10.7,-5.76 l -2.9,-11.25 11.3,1.6 c 1.4,-2.38 2.57,-4.94 3.39,-7.7 z M 32.28,95.74 c -4.74,-1.42 -7.44,-6.41 -6.02,-11.15 1.42,-4.74 6.41,-7.44 11.15,-6.02 4.74,1.42 7.44,6.41 6.02,11.15 -1.42,4.74 -6.41,7.44 -11.15,6.02 z"
     id="path21"
     style="fill:url(#c);stroke:#ffffff;stroke-width:4;stroke-linejoin:round;stroke-dasharray:none;stroke-opacity:1;paint-order:stroke fill markers" />
  <g
     id="g22"
     transform="translate(0,1)">
    <polygon
       class="g"
       points="83.97,1.5 83.97,25.68 64.28,25.68 64.28,26.28 83.97,26.28 83.97,47.51 64.28,47.51 64.28,49.2 83.97,49.2 83.97,121.36 34.97,121.36 34.97,97.2 55.08,97.2 55.08,96.58 34.97,96.58 34.97,75.37 55.08,75.37 55.08,73.68 34.97,73.68 34.97,1.5 "
       id="polygon21"
       style="fill:url(#d)" />
    <path
       class="h"
       d="m 81.47,4 v 19.17 h -19.7 v 5.61 h 19.7 v 16.23 h -19.7 v 6.68 h 19.7 v 67.17 h -44 V 99.7 h 20.1 V 94.08 H 37.47 V 77.86 h 20.1 V 71.18 H 37.47 V 4 h 44 m 5,-5 h -54 v 124.86 h 54 z"
       id="path22"
       style="fill:#ffffff;fill-opacity:1" />
  </g>
</svg>
