<?xml version="1.0" encoding="UTF-8"?>
<svg id="a" data-name="Layer 1" xmlns="http://www.w3.org/2000/svg" xmlns:xlink="http://www.w3.org/1999/xlink" viewBox="0 0 119.95 124.86">
  <defs>
    <style>
      .e {
        fill: url(#c);
      }

      .e, .f, .g, .h {
        stroke-width: 0px;
      }

      .f {
        fill: url(#b);
      }

      .g {
        fill: url(#d);
      }

      .h {
        fill: #231f20;
      }
    </style>
    <radialGradient id="b" data-name="Steel Radial" cx="85.14" cy="38.8" fx="85.14" fy="38.8" r="34.81" gradientUnits="userSpaceOnUse">
      <stop offset="0" stop-color="#e5e2df"/>
      <stop offset="0" stop-color="#f1efed"/>
      <stop offset="0" stop-color="#fff"/>
      <stop offset=".13" stop-color="#f0f0f0"/>
      <stop offset=".37" stop-color="#c9cacb"/>
      <stop offset=".52" stop-color="#adaeb0"/>
      <stop offset=".6" stop-color="#a3a5a7"/>
      <stop offset=".74" stop-color="#898d8f"/>
      <stop offset=".91" stop-color="#5e6669"/>
      <stop offset="1" stop-color="#465053"/>
    </radialGradient>
    <radialGradient id="c" data-name="Steel Radial" cx="34.56" cy="86.09" fx="34.56" fy="86.09" r="34.67" xlink:href="#b"/>
    <linearGradient id="d" data-name="Blue Steel" x1="34.97" y1="61.43" x2="83.97" y2="61.43" gradientUnits="userSpaceOnUse">
      <stop offset="0" stop-color="#7da7d9"/>
      <stop offset=".07" stop-color="#35517d"/>
      <stop offset=".5" stop-color="#dee6f5"/>
      <stop offset=".62" stop-color="#bacdea"/>
      <stop offset=".67" stop-color="#b6cae8"/>
      <stop offset=".71" stop-color="#aac3e5"/>
      <stop offset=".76" stop-color="#96b6df"/>
      <stop offset=".81" stop-color="#7aa5d8"/>
      <stop offset=".81" stop-color="#7aa5d8"/>
      <stop offset="1" stop-color="#174d6b"/>
    </linearGradient>
  </defs>
  <path class="f" d="m119.95,38.76c0-1.34-.09-2.65-.24-3.95l-10.5-3.6,7.05-7.98c-1.93-3.85-4.54-7.29-7.69-10.17l-9.45,3.64.24-9.7c-3.95-1.77-8.28-2.82-12.84-3l-4.46,8.07-5.59-7.02c-4.46,1.14-8.56,3.13-12.14,5.8l1.69,8.64-8.64-1.75c-2.7,3.55-4.72,7.63-5.9,12.07l7.02,5.67-8.17,4.44c.15,4.55,1.15,8.88,2.88,12.83l9.8-.18-3.74,9.51c2.85,3.15,6.26,5.78,10.08,7.73l8.1-7.06,3.55,10.59c1.35.16,2.71.26,4.1.26,2.82,0,5.55-.37,8.18-1.01l1.78-11.33,9.93,6.07c3.35-2.33,6.26-5.24,8.6-8.58l-6-9.95,11.29-1.7c.66-2.68,1.05-5.47,1.05-8.35Zm-34.81,9c-4.95,0-8.96-4.01-8.96-8.96s4.01-8.96,8.96-8.96,8.96,4.01,8.96,8.96-4.01,8.96-8.96,8.96Z"/>
  <path class="e" d="m68.21,96.07c.38-1.28.67-2.57.9-3.86l-9.03-6.45,9.04-5.63c-.74-4.24-2.27-8.29-4.46-11.94l-10.09.78,3.01-9.22c-3.27-2.83-7.13-5.07-11.45-6.55l-6.58,6.46-3.35-8.32c-4.6-.18-9.1.55-13.29,2.08l-.85,8.76-7.78-4.15c-3.6,2.63-6.71,5.96-9.11,9.88l5.1,7.44-9.1,1.92C0,81.68-.27,86.11.26,90.39l9.44,2.63-6.3,8.05c1.83,3.84,4.34,7.33,7.45,10.29l9.78-4.45.38,11.16c1.24.54,2.52,1.02,3.85,1.42,2.71.81,5.43,1.23,8.13,1.38l4.95-10.34,7.78,8.66c3.87-1.28,7.49-3.23,10.7-5.76l-2.9-11.25,11.3,1.6c1.4-2.38,2.57-4.94,3.39-7.7Zm-35.93-1.33c-4.74-1.42-7.44-6.41-6.02-11.15s6.41-7.44,11.15-6.02,7.44,6.41,6.02,11.15c-1.42,4.74-6.41,7.44-11.15,6.02Z"/>
  <g>
    <polygon class="g" points="34.97 121.36 34.97 97.2 55.08 97.2 55.08 96.58 34.97 96.58 34.97 75.37 55.08 75.37 55.08 73.68 34.97 73.68 34.97 1.5 83.97 1.5 83.97 25.68 64.28 25.68 64.28 26.28 83.97 26.28 83.97 47.51 64.28 47.51 64.28 49.2 83.97 49.2 83.97 121.36 34.97 121.36"/>
    <path class="h" d="m81.47,4v19.17h-19.7v5.61h19.7v16.23h-19.7v6.68h19.7v67.17h-44v-19.16h20.1v-5.62h-20.1v-16.22h20.1v-6.68h-20.1V4h44m5-5h-54v124.86h54V-1h0Z"/>
  </g>
</svg>