<?xml version="1.0" encoding="UTF-8"?>
<svg id="a" data-name="Layer 1" xmlns="http://www.w3.org/2000/svg" xmlns:xlink="http://www.w3.org/1999/xlink" viewBox="0 0 119.95 117.82">
  <defs>
    <style>
      .e {
        fill: url(#c);
      }

      .e, .f, .g {
        stroke-width: 0px;
      }

      .f {
        fill: url(#b);
      }

      .g {
        fill: url(#d);
      }
    </style>
    <radialGradient id="b" data-name="Steel Radial" cx="103.06" cy="34.8" fx="103.06" fy="34.8" r="27.35" gradientUnits="userSpaceOnUse">
      <stop offset="0" stop-color="#e5e2df"/>
      <stop offset="0" stop-color="#f1efed"/>
      <stop offset="0" stop-color="#fff"/>
      <stop offset=".13" stop-color="#f0f0f0"/>
      <stop offset=".37" stop-color="#c9cacb"/>
      <stop offset=".52" stop-color="#adaeb0"/>
      <stop offset=".6" stop-color="#a3a5a7"/>
      <stop offset=".74" stop-color="#898d8f"/>
      <stop offset=".91" stop-color="#5e6669"/>
      <stop offset="1" stop-color="#465053"/>
    </radialGradient>
    <radialGradient id="c" data-name="Steel Radial" cx="16.09" cy="83.12" fx="16.09" fy="83.12" r="27.05" xlink:href="#b"/>
    <linearGradient id="d" data-name="Blue Steel" x1="37.48" y1="58.44" x2="81.48" y2="58.44" gradientUnits="userSpaceOnUse">
      <stop offset="0" stop-color="#7da7d9"/>
      <stop offset=".07" stop-color="#35517d"/>
      <stop offset=".5" stop-color="#dee6f5"/>
      <stop offset=".62" stop-color="#bacdea"/>
      <stop offset=".67" stop-color="#b6cae8"/>
      <stop offset=".71" stop-color="#aac3e5"/>
      <stop offset=".76" stop-color="#96b6df"/>
      <stop offset=".81" stop-color="#7aa5d8"/>
      <stop offset=".81" stop-color="#7aa5d8"/>
      <stop offset="1" stop-color="#174d6b"/>
    </linearGradient>
  </defs>
  <path class="f" d="m119.95,34.77c0-1.34-.09-2.66-.24-3.95l-10.5-3.61,7.05-7.98c-1.93-3.85-4.54-7.29-7.69-10.17l-9.45,3.64.25-9.7c-3.95-1.77-8.28-2.82-12.85-3l-.35.63v25.27c4.47.51,7.93,4.3,7.93,8.9s-3.46,8.4-7.93,8.91v25.88c2.45-.08,4.82-.44,7.12-.99l1.78-11.33,9.93,6.08c3.35-2.34,6.26-5.24,8.61-8.58l-6-9.95,11.29-1.7c.66-2.68,1.05-5.47,1.05-8.35Z"/>
  <path class="e" d="m32.17,74.61v-26.19c-3.2.24-6.31.92-9.28,2.01l-.85,8.75-7.78-4.14c-3.6,2.63-6.71,5.96-9.11,9.88l5.11,7.44-9.1,1.92C0,78.69-.28,83.12.26,87.4l9.44,2.63-6.3,8.04c1.83,3.84,4.34,7.34,7.45,10.29l9.78-4.44.38,11.16c1.24.54,2.52,1.03,3.85,1.42,2.43.73,4.88,1.14,7.31,1.32v-26.11c-4.68-1.46-7.32-6.41-5.92-11.11.89-2.96,3.17-5.13,5.92-5.99Z"/>
  <polygon class="g" points="81.48 48.71 81.48 115.87 37.48 115.87 37.48 96.71 57.58 96.71 57.58 91.09 37.48 91.09 37.48 74.87 57.58 74.87 57.58 68.19 37.48 68.19 37.48 1.01 81.48 1.01 81.48 20.18 61.78 20.18 61.78 25.79 81.48 25.79 81.48 42.02 61.78 42.02 61.78 48.71 81.48 48.71"/>
</svg>