<?xml version="1.0" standalone="no"?>
<!DOCTYPE svg PUBLIC "-//W3C//DTD SVG 20010904//EN"
 "http://www.w3.org/TR/2001/REC-SVG-20010904/DTD/svg10.dtd">
<svg version="1.0" xmlns="http://www.w3.org/2000/svg"
 width="199.000000pt" height="110.000000pt" viewBox="0 0 199.000000 110.000000"
 preserveAspectRatio="xMidYMid meet">

<g transform="translate(0.000000,110.000000) scale(0.100000,-0.100000)"
fill="#000000" stroke="none">
<path d="M923 855 c-9 -24 1 -27 15 -5 8 13 8 20 2 20 -6 0 -13 -7 -17 -15z"/>
<path d="M1277 822 c-19 -20 -23 -42 -7 -42 12 0 32 38 28 51 -2 6 -11 2 -21
-9z"/>
<path d="M1032 790 c0 -14 2 -19 5 -12 2 6 2 18 0 25 -3 6 -5 1 -5 -13z"/>
<path d="M1097 803 c-10 -10 -8 -43 2 -43 9 0 21 24 21 41 0 11 -14 12 -23 2z"/>
</g>
</svg>
