<?xml version="1.0" encoding="UTF-8" standalone="no"?>
<!-- Created with Inkscape (http://www.inkscape.org/) -->

<svg
   width="209mm"
   height="209.00002mm"
   viewBox="0 0 209 209.00002"
   version="1.1"
   id="svg1"
   sodipodi:docname="Einstein Engines.svg"
   inkscape:version="1.3.2 (091e20ef0f, 2023-11-25)"
   inkscape:export-filename="../../Projects/Einstein-Engines/Resources/Textures/Logo/splashlogo.png"
   inkscape:export-xdpi="62.223923"
   inkscape:export-ydpi="62.223923"
   xmlns:inkscape="http://www.inkscape.org/namespaces/inkscape"
   xmlns:sodipodi="http://sodipodi.sourceforge.net/DTD/sodipodi-0.dtd"
   xmlns="http://www.w3.org/2000/svg"
   xmlns:svg="http://www.w3.org/2000/svg">
  <sodipodi:namedview
     id="namedview1"
     pagecolor="#ffffff"
     bordercolor="#000000"
     borderopacity="0.25"
     inkscape:showpageshadow="2"
     inkscape:pageopacity="0.0"
     inkscape:pagecheckerboard="0"
     inkscape:deskcolor="#d1d1d1"
     inkscape:document-units="mm"
     showguides="true"
     inkscape:zoom="0.71535494"
     inkscape:cx="290.76475"
     inkscape:cy="408.18898"
     inkscape:window-width="1403"
     inkscape:window-height="867"
     inkscape:window-x="0"
     inkscape:window-y="0"
     inkscape:window-maximized="0"
     inkscape:current-layer="g415" />
  <defs
     id="defs1">
    <filter
       inkscape:collect="always"
       style="color-interpolation-filters:sRGB"
       id="filter412"
       x="-0.0037897063"
       y="-0.0050228465"
       width="1.0075794"
       height="1.0100457">
      <feGaussianBlur
         inkscape:collect="always"
         stdDeviation="0.080045741"
         id="feGaussianBlur412" />
    </filter>
    <filter
       inkscape:collect="always"
       style="color-interpolation-filters:sRGB"
       id="filter413"
       x="-0.003383145"
       y="-0.005974429"
       width="1.0067663"
       height="1.0119489">
      <feGaussianBlur
         inkscape:collect="always"
         stdDeviation="0.058792674"
         id="feGaussianBlur413" />
    </filter>
    <filter
       inkscape:collect="always"
       style="color-interpolation-filters:sRGB"
       id="filter414"
       x="-0.005480128"
       y="-0.012830516"
       width="1.0109603"
       height="1.025661">
      <feGaussianBlur
         inkscape:collect="always"
         stdDeviation="0.073851111"
         id="feGaussianBlur414" />
    </filter>
  </defs>
  <g
     inkscape:label="Layer 1"
     inkscape:groupmode="layer"
     id="layer1">
    <circle
       style="display:none;opacity:1;fill:#000000;fill-opacity:1;fill-rule:evenodd;stroke:#6e6e6e;stroke-width:0.800104;stroke-linecap:round;stroke-linejoin:miter;stroke-dasharray:none;stroke-opacity:1"
       id="path414"
       cx="104.79388"
       cy="104.71114"
       r="104.19353" />
    <g
       id="g405"
       inkscape:label="Helpers"
       style="display:none"
       sodipodi:insensitive="true">
      <circle
         style="fill:#d03720;fill-opacity:1;fill-rule:evenodd;stroke-width:0.212"
         id="path5"
         cx="135.59941"
         cy="38.838573"
         r="5.7844439" />
      <circle
         style="fill:#eb5400;fill-opacity:1;fill-rule:evenodd;stroke-width:0.243591"
         id="path8"
         cx="144.70073"
         cy="38.838573"
         r="3.3168719" />
      <circle
         style="fill:#eda047;fill-opacity:1;fill-rule:evenodd;stroke-width:0.167792"
         id="path8-5"
         cx="150.30235"
         cy="38.838573"
         r="2.2847528" />
      <circle
         style="fill:#eacf7a;fill-opacity:1;fill-rule:evenodd;stroke-width:0.117473"
         id="path8-5-2"
         cx="154.18669"
         cy="38.838573"
         r="1.5995744" />
      <circle
         style="fill:#fbe766;fill-opacity:1;fill-rule:evenodd;stroke-width:0.0893373"
         id="path8-5-2-7"
         cx="157.00273"
         cy="38.865047"
         r="1.2164643" />
      <circle
         style="fill:#d03720;fill-opacity:1;fill-rule:evenodd;stroke-width:0.212"
         id="circle8"
         cx="135.59941"
         cy="38.838573"
         r="5.7844439" />
      <circle
         style="fill:#d03720;fill-opacity:1;fill-rule:evenodd;stroke-width:0.212"
         id="circle153"
         cx="135.59941"
         cy="38.838573"
         r="5.7844439" />
    </g>
    <g
       id="g404"
       inkscape:label="Flame"
       transform="matrix(1.679334,0,0,1.679334,-76.035239,5.8453329)"
       inkscape:export-filename="Einstein Engines.png"
       inkscape:export-xdpi="327.44"
       inkscape:export-ydpi="327.44"
       style="display:inline">
      <path
         id="circle255"
         style="opacity:1;mix-blend-mode:normal;fill:#d03720;fill-opacity:1;fill-rule:evenodd;stroke-width:0.230757;filter:url(#filter412)"
         d="m 59.355561,57.113696 c -0.0017,1.655629 0.842577,3.099733 1.952852,4.327901 0.162923,0.180223 -0.04922,0.483628 -0.04754,0.726571 0.01144,1.653374 0.351621,4.021098 1.979724,4.309298 0.964699,0.170767 1.546772,-1.207015 2.526461,-1.210779 1.83203,-0.007 3.328641,1.485103 3.31711,3.31711 -0.0014,0.219243 -0.253187,0.488447 -0.102836,0.648022 0.69245,0.734931 1.77758,1.21938 2.777092,1.075904 0.251123,-0.03605 -0.117062,-0.495615 -0.11834,-0.749309 -0.0092,-1.831819 1.485269,-3.316593 3.317111,-3.316593 1.831842,0 3.322805,1.48476 3.31711,3.316593 -0.002,0.640205 -0.73471,1.182687 -0.555522,1.797307 0.171791,0.589246 1.483966,0.902656 1.791622,0.371553 0.803314,-1.38675 1.65558,-2.727084 3.258199,-2.728515 1.831841,-0.0016 3.317918,1.484751 3.31711,3.316593 -4.33e-4,0.981677 -0.463324,1.882681 -1.191141,2.541447 -0.03636,0.03291 0.0113,0.09772 0.01034,0.146761 -0.0091,0.459388 -0.55182,0.932033 -0.31626,1.326534 0.777789,1.302593 2.535847,1.667182 4.052983,1.665532 1.518652,-0.0017 2.556907,-1.413575 4.052466,-1.677417 1.188874,-0.209737 2.154331,1.099534 3.361551,1.09399 0.605671,-0.0028 1.396739,0.150396 1.777153,-0.320911 0.234759,-0.290851 -0.197747,-0.721767 -0.198438,-1.09554 -0.0034,-1.832041 1.485066,-3.317254 3.317112,-3.317111 1.83184,1.43e-4 3.32446,1.485286 3.31659,3.317111 -0.003,0.615191 -0.35183,1.142461 -0.52348,1.733227 -0.0488,0.168002 0.3444,0.07303 0.51935,0.0739 3.19438,0.01574 5.78434,-2.589718 5.78414,-5.784143 -1e-4,-1.684273 -1.56549,-2.759122 -2.01176,-4.383195 -0.31975,-1.163633 1.09313,-2.153752 1.09295,-3.360518 -1.8e-4,-1.256956 -0.83537,-2.269782 -1.1808,-3.478341 -0.20854,-0.729598 0.41868,-1.459657 0.42064,-2.218469 0.002,-0.918844 -0.9171,-1.799262 -0.59221,-2.658752 0.54952,-1.453711 1.75015,-2.570709 1.74925,-4.124813 -5.6e-4,-0.958597 -0.63816,-1.785217 -0.71262,-2.740918 -0.0637,-0.817094 0.51255,-1.557029 0.51263,-2.376599 3.3e-4,-3.194425 -2.58972,-5.790413 -5.78414,-5.784143 -0.47897,9.4e-4 -1.38235,-0.278722 -1.41749,0.198954 -0.0513,0.697447 0.63518,1.246287 0.63562,1.945618 0.001,1.832043 -1.48506,3.317253 -3.317106,3.31711 -1.831842,-1.42e-4 -3.325927,-1.485292 -3.316594,-3.31711 0.006,-1.178694 1.188852,-1.770697 1.680001,-2.842204 0.287717,-0.627694 -1.322823,-0.410028 -2.013314,-0.411861 -1.519909,-0.004 -3.484707,0.281476 -4.049882,1.692403 -0.262006,0.654084 0.644456,1.253412 0.644922,1.95802 0.0012,1.832043 -1.485068,3.319471 -3.31711,3.31711 -0.548731,-7.07e-4 -1.129679,-0.73217 -1.56993,-0.404626 -0.966114,0.718784 -1.68971,1.712131 -2.89388,1.71359 -1.831841,0.0022 -3.318422,-1.484751 -3.317111,-3.316593 0.0011,-1.579685 1.121236,-2.92679 2.668055,-3.247347 0.03599,-0.0075 -0.0728,-0.01232 -0.109554,-0.0124 -1.643634,-0.0036 -3.177973,0.728621 -4.306714,1.923397 -0.03624,0.03836 -0.104322,-0.0198 -0.157097,-0.01964 -1.813606,0.0055 -3.532494,0.861377 -4.600752,2.32699 -0.01603,0.02199 0.01286,0.0534 0.01292,0.08061 0.004,1.831838 -1.484752,3.316968 -3.316594,3.31711 -1.832044,1.43e-4 -3.3177,-1.485066 -3.31711,-3.31711 8.9e-5,-0.275593 0.379153,-0.830071 0.10387,-0.817004 -1.514823,0.0719 -3.990946,1.048026 -3.589445,2.510441 0.366956,1.336589 2.174927,1.710925 2.178161,3.096968 0.0043,1.831635 -1.484981,3.326786 -3.316593,3.316594 -0.880612,-0.0049 -1.476826,-1.231705 -2.33009,-1.013892 -1.554822,0.396899 -1.851953,2.620913 -1.853642,4.225584 z"
         sodipodi:nodetypes="sssssssssssssssssssssssssssssssssssssssssssssssssssssssssssssss" />
      <path
         id="circle318"
         style="mix-blend-mode:normal;fill:#eb5400;fill-opacity:1;fill-rule:evenodd;stroke-width:0.243591;filter:url(#filter413)"
         d="m 66.255398,59.703719 c 0.01792,1.59323 1.155308,3.044208 2.738334,3.225126 0.104642,0.01196 -0.06047,-0.204224 -0.0615,-0.309542 -0.01225,-1.261869 1.023204,-2.284758 2.285132,-2.284615 1.261726,1.43e-4 2.286073,1.022889 2.284615,2.284615 -3.35e-4,0.290299 -0.222406,0.561216 -0.168465,0.84646 0.03201,0.169281 0.337794,0.07543 0.510047,0.07855 0.445263,0.0081 0.992901,-0.595907 1.295011,-0.268717 0.749773,0.812017 1.260071,1.815884 2.335775,2.069641 0.0043,0.001 -0.0026,-0.0085 -0.0026,-0.01292 -7.7e-4,-1.261928 1.023205,-2.286277 2.285132,-2.284615 1.075681,0.0014 1.875469,0.791466 2.228287,1.807641 0.04411,0.127035 0.266536,-0.03616 0.40101,-0.03617 1.261928,-1.42e-4 2.293846,1.023237 2.284615,2.285132 -0.0017,0.22873 -0.347405,0.749772 -0.133326,0.669209 0.751352,-0.282753 0.605473,-2.091503 1.379761,-1.879471 1.120938,0.306959 1.674844,1.614663 2.837036,1.608687 0.09771,-5.02e-4 0.304322,0.05796 0.290422,-0.03876 -0.04667,-0.324739 -0.221151,-0.619155 -0.222209,-0.947229 -0.0041,-1.26172 1.022888,-2.284615 2.284615,-2.284615 1.261727,0 2.284871,1.022889 2.284615,2.284615 -1.23e-4,0.603593 -0.761622,1.014332 -0.665592,1.610237 0.161508,1.002217 1.580049,1.274909 2.59519,1.278475 0.06754,2.37e-4 0.142138,-0.04564 0.202055,-0.01447 0.531115,0.276307 1.099935,0.479702 1.698605,0.474906 0.159718,-0.0013 0.497853,0.09916 0.474906,-0.05891 -0.05732,-0.394874 -0.338812,-0.72703 -0.342098,-1.126029 -0.01039,-1.261684 1.022889,-2.284472 2.284615,-2.284615 1.261924,-1.43e-4 2.291544,1.022703 2.285134,2.284615 -0.003,0.549451 -0.70058,0.949502 -0.58291,1.486214 0.20767,0.947252 1.53502,1.191709 2.50475,1.196309 1.83162,0.0087 3.31851,-1.484954 3.3166,-3.316593 -7.5e-4,-0.715668 -0.61762,-1.268909 -0.66766,-1.982825 -0.0451,-0.642632 0.54248,-1.169118 0.54157,-1.813326 -10e-4,-1.014908 -1.69534,-1.678464 -1.26866,-2.599324 0.58532,-1.26323 2.18359,-1.716611 2.1854,-3.108855 0.002,-1.292469 -1.71922,-1.733561 -1.92443,-3.009635 -0.18373,-1.142457 1.59554,-1.672665 1.59628,-2.829801 10e-4,-1.831842 -1.48527,-3.316861 -3.31711,-3.316594 -1.32181,1.92e-4 -2.41418,0.835512 -3.04271,1.998328 -0.0584,0.10795 -0.24419,-0.02583 -0.3669,-0.02636 -0.33289,-0.0014 -0.65524,0.213211 -0.981852,0.148828 -0.379985,-0.0749 -0.71085,-0.29249 -1.04283,-0.49196 -0.09865,-0.05927 0.02454,-0.22908 0.02429,-0.344165 -0.0022,-1.030301 -0.439916,-2.068276 -1.307414,-2.624129 -0.10622,-0.06806 0.0726,0.244372 0.0739,0.37052 0.01299,1.26166 -1.022897,2.289206 -2.284616,2.284615 -1.216404,-0.0044 -2.099543,-0.97984 -2.265494,-2.184879 -0.01892,-0.137394 -0.176729,0.389825 -0.284737,0.302823 -0.721465,-0.581149 -1.509612,-1.073478 -2.436027,-1.074353 -1.027522,-9.71e-4 -1.876057,0.586503 -2.624646,1.290361 -0.282767,0.26587 -0.627669,0.53478 -1.015442,0.551387 -0.433641,0.01857 -0.791834,-0.391334 -1.225765,-0.401009 -0.04488,-10e-4 -0.0032,0.108089 0.03617,0.129708 0.756548,0.415664 1.261217,1.174904 1.261939,2.038119 0.0011,1.261726 -1.02289,2.28623 -2.284615,2.284615 -0.07188,-9.2e-5 -0.143097,-0.01447 -0.214974,-0.0155 -0.05994,-8.65e-4 -0.119367,0.01283 -0.179318,0.01292 -1.261725,0.0018 -2.284795,-1.022889 -2.284615,-2.284615 3e-6,-0.01982 0.01672,-0.04668 0.0016,-0.05943 -0.528833,-0.444477 -0.860358,-1.085328 -0.854729,-1.776119 0.003,-0.362404 0.131196,-0.70461 0.28112,-1.034562 0.01179,-0.02595 -0.05624,-0.01131 -0.08475,-0.01137 -1.638913,-0.0033 -2.434519,1.412722 -3.27887,2.817399 -0.628791,1.046068 -1.745962,1.700246 -1.745113,2.920752 1.21e-4,0.174003 0.135445,0.371358 0.04393,0.519348 -0.09857,0.15939 -0.427629,0.07181 -0.506429,0.241846 -0.408813,0.882137 -1.168187,1.552832 -2.140438,1.557528 -1.261712,0.0061 -2.2939,-1.022923 -2.284615,-2.284616 4.66e-4,-0.06327 0.09465,-0.212558 0.03721,-0.186035 -0.924641,0.426952 -1.527989,1.33355 -1.725476,2.332674 -0.0022,0.01102 -0.02236,-0.0026 -0.03359,-0.0026 -0.09337,3.8e-4 -0.321852,-0.06775 -0.279569,0.0155 0.216095,0.425477 0.465095,0.839008 0.469222,1.316198 0.01091,1.261679 -1.02294,2.296012 -2.284615,2.284615 -0.435839,-0.0039 -0.841041,-0.181133 -1.216463,-0.402559 -0.02972,-0.01753 -0.0061,0.06885 -0.0057,0.103353 z M 89.35373,58.56322 c 0.06244,-0.08448 0.189731,-0.210155 0.276469,-0.150895 0.07909,0.05403 -0.07709,0.19023 -0.15968,0.238745 -0.04201,0.02468 -0.145746,-0.04867 -0.116789,-0.08785 z m 4.758883,-4.924764 c 0.05381,-0.01935 0.141707,0.01777 0.155029,0.07338 0.01066,0.04449 -0.08675,0.06854 -0.128158,0.04909 -0.03784,-0.01777 -0.0662,-0.108325 -0.02687,-0.122473 z"
         sodipodi:nodetypes="sssssssssssssssssssssssssssssssssssssssssssssssssssssssssssssssssssssssssssssssssssss" />
      <path
         id="circle367"
         style="mix-blend-mode:normal;fill:#eda047;fill-opacity:1;fill-rule:evenodd;stroke-width:0.167792;filter:url(#filter414)"
         d="m 72.804353,59.431384 c 0.02705,1.047462 1.15207,1.744024 2.199865,1.749764 0.464286,0.0025 0.854753,-0.547639 1.298112,-0.409794 0.64529,0.200627 1.074005,0.819399 1.749764,0.819588 0.09663,2.7e-5 0.215867,-0.08398 0.288871,-0.02067 0.482214,0.418192 1.04016,0.73991 1.678451,0.740006 0.419259,6.3e-5 0.785646,-0.217463 1.187524,-0.33693 0.110029,-0.03271 0.188485,0.371561 0.222726,0.261999 0.228848,-0.732247 0.778498,-1.321272 1.545642,-1.328084 0.88344,-0.0078 1.601483,0.71643 1.599385,1.599902 -0.206412,1.98401 -0.168069,-0.805968 1.548227,-0.944645 0.883677,-1.43e-4 1.606782,0.716252 1.599903,1.599902 -3.54e-4,0.04552 -0.06382,0.160436 -0.02687,0.133842 0.162165,-0.116713 0.44381,-0.283244 0.369487,-0.468705 -0.154505,-0.385539 -0.454278,-0.695698 -0.454753,-1.111043 -0.001,-0.883272 0.716112,-1.599243 1.599385,-1.599386 0.883475,-1.43e-4 1.601103,0.715911 1.599903,1.599386 -2.72e-4,0.20053 -0.218254,0.412622 -0.115755,0.584977 0.130117,0.218795 0.4901,0.142161 0.744657,0.143661 0.474944,0.0028 0.851934,-0.371233 1.323433,-0.428398 0.384214,-0.04658 0.717852,0.296796 1.104843,0.291455 0.10311,-0.0014 0.261301,0.04619 0.305407,-0.04703 0.05108,-0.107946 -0.06808,-0.230951 -0.06925,-0.350366 -0.0087,-0.883432 0.716428,-1.60063 1.599902,-1.599385 0.836986,0.0012 0.91486,0.990972 1.591118,1.484147 0.534581,0.389854 0.830779,-1.025217 1.492415,-1.025261 0.883475,-5.9e-5 1.604515,0.716443 1.599385,1.599903 -0.003,0.607401 -0.791892,0.823849 -0.907954,1.420068 -0.184236,0.946431 1.175734,1.524713 2.139924,1.527555 1.26172,0.0037 2.28515,-1.022889 2.28461,-2.284615 -4e-5,-0.09889 -0.0755,-0.212967 -0.0212,-0.295589 0.29658,-0.450979 0.54153,-0.934054 0.54106,-1.473812 -7.1e-4,-0.805994 -1.5406,-1.272931 -1.1219,-1.961637 0.56658,-0.93195 1.84503,-1.145892 1.8464,-2.236556 0.002,-1.261927 -1.02269,-2.285217 -2.28462,-2.285132 -0.15662,1.1e-5 -0.47339,0.205035 -0.46612,0.04858 0.0168,-0.361951 0.25595,-0.678422 0.25632,-1.040763 0.001,-1.261726 -1.02289,-2.284581 -2.28462,-2.284615 -0.839837,-2.3e-5 -1.314567,0.730151 -2.010728,1.199926 -0.353559,0.238584 -0.779611,-0.349771 -1.206128,-0.346749 -0.133725,9.47e-4 -0.509142,-0.02436 -0.397392,0.04909 0.519779,0.341646 0.933762,0.820803 0.93586,1.442806 0.003,0.88347 -0.71591,1.599902 -1.599385,1.599902 -0.883475,0 -1.607295,-0.716462 -1.599386,-1.599902 0.0047,-0.522352 0.671311,-0.773883 0.714168,-1.294495 0.03965,-0.481636 -0.856705,-0.452142 -1.33997,-0.452168 -0.761809,-4.1e-5 -1.614751,0.315241 -1.89084,1.02526 -0.0812,0.208822 0.145643,0.424486 0.146244,0.648539 0.0024,0.883472 -0.715917,1.603344 -1.599385,1.599903 -0.394846,-0.0015 -0.697695,-0.276393 -1.064018,-0.423747 -0.153783,-0.06186 -0.269094,0.464441 -0.368453,0.331763 -0.521935,-0.696959 -1.176692,-1.279425 -2.04742,-1.280542 -0.494439,-6.34e-4 -0.883647,0.373787 -1.370976,0.457336 -0.363836,0.06238 -0.68922,-0.271497 -1.058333,-0.26665 -0.172944,0.0023 -0.455968,-0.0785 -0.510047,0.08578 -0.06732,0.204517 0.13099,0.41049 0.131258,0.625802 0.0011,0.883474 -0.71591,1.599902 -1.599385,1.599902 -0.883475,0 -1.606965,-0.71646 -1.599386,-1.599902 0.0013,-0.146451 0.181529,-0.318538 0.08527,-0.428914 -0.205928,-0.236118 -0.592125,-0.206976 -0.905371,-0.212907 -0.110321,-0.0021 -0.22711,0.06493 -0.329695,0.02429 -0.365066,-0.144615 -0.726648,-0.301117 -1.119312,-0.299724 -0.687629,0.0024 -1.921838,0.188775 -1.765267,0.858346 0.149533,0.639471 1.013506,0.83001 1.013892,1.486731 5.19e-4,0.883677 -0.716264,1.608054 -1.599903,1.599902 -0.756573,-0.007 -1.258329,-0.598975 -1.539957,-1.301212 -0.05728,-0.142825 -0.555931,-0.0436 -0.454753,0.07235 0.349672,0.400697 0.708034,0.792651 0.708484,1.324467 7.48e-4,0.883474 -0.716447,1.605264 -1.599902,1.599385 -0.253451,-0.0017 -0.730012,-0.45026 -0.72347,-0.196887 z"
         sodipodi:nodetypes="sssssssssssssssssssssssssssssssssssssssssssssssssssssssssssssssssssssss" />
    </g>
    <g
       id="g9"
       inkscape:label="rocketbot"
       transform="translate(53.108672,39.113522)"
       style="display:inline">
      <path
         id="path1-5"
         style="fill:#bababa;fill-opacity:1;fill-rule:evenodd;stroke-width:0.424313"
         d="m 51.038106,66.828594 -2.12e-4,-29.53139 16.735469,16.735469 h 19.995908 l 13.382059,-7.726139 v 20.52206 z m 0,0 -2.12e-4,29.531391 16.735469,-16.735469 h 19.995908 l 13.382059,7.726139 V 66.828594 Z" />
      <path
         style="fill:#3e3e3e;fill-opacity:0.77879;fill-rule:evenodd;stroke-width:1.58867;stroke-dasharray:none"
         d="m 56.694281,42.952929 c 1.915448,1.915448 1.915414,1.915448 1.915414,1.915448 v 43.919807 l -1.915414,1.915414 z"
         id="path1"
         sodipodi:nodetypes="ccccc" />
      <path
         style="fill:#3e3e3e;fill-opacity:0.77879;fill-rule:evenodd;stroke-width:1.41542;stroke-dasharray:none"
         d="m 61.617383,47.876659 1.915414,1.915448 v 34.072975 l -1.915414,1.915414 z"
         id="path1-2"
         sodipodi:nodetypes="ccccc" />
      <rect
         style="fill:#a86c00;fill-opacity:1;fill-rule:evenodd;stroke-width:1.58867;stroke-dasharray:none"
         id="rect4"
         width="12.293485"
         height="0.72728169"
         x="58.077374"
         y="114.29659"
         transform="rotate(-39.577987)" />
      <path
         id="path2"
         style="fill:#838383;fill-opacity:1;fill-rule:evenodd;stroke-width:1.58867;stroke-dasharray:none"
         d="M 87.769271,54.032673 101.15133,46.306534 V 87.350655 L 87.769271,79.624516 Z m -19.995916,-4e-6 H 87.769263 V 79.624512 H 67.773355 Z" />
      <path
         style="fill:#919191;fill-opacity:1;fill-rule:evenodd;stroke-width:1.58867;stroke-dasharray:none"
         d="m 105.15405,46.307447 v 41.042295 c 20.52583,0 20.52315,-20.521148 20.52315,-20.521148 0,0 0.015,-20.521147 -20.52315,-20.521147 z"
         id="path3"
         sodipodi:nodetypes="cccc" />
      <rect
         style="fill:#919191;fill-opacity:1;fill-rule:evenodd;stroke-width:1.58867;stroke-dasharray:none"
         id="rect3"
         width="4.0027227"
         height="41.043209"
         x="101.15132"
         y="46.30653" />
      <circle
         style="fill:#a86c00;fill-opacity:1;fill-rule:evenodd;stroke-width:1.58867;stroke-dasharray:none"
         id="path4"
         cx="127.52383"
         cy="43.259781"
         r="0.78777903" />
      <path
         style="fill:none;fill-opacity:1;fill-rule:evenodd;stroke:#67a4e3;stroke-width:0.400295;stroke-linecap:round;stroke-linejoin:round;stroke-dasharray:none;stroke-opacity:1"
         id="path4-6"
         sodipodi:type="arc"
         sodipodi:cx="-127.52631"
         sodipodi:cy="-43.358097"
         sodipodi:rx="1.3009603"
         sodipodi:ry="1.3009603"
         sodipodi:start="0.52359878"
         sodipodi:end="4.1887902"
         sodipodi:open="true"
         sodipodi:arc-type="arc"
         d="m -126.39965,-42.707617 a 1.3009603,1.3009603 0 0 1 -1.35257,0.630716 1.3009603,1.3009603 0 0 1 -1.05529,-1.055287 1.3009603,1.3009603 0 0 1 0.63072,-1.352574"
         transform="scale(-1)" />
      <path
         style="fill:none;fill-opacity:1;fill-rule:evenodd;stroke:#67a4e3;stroke-width:0.400295;stroke-linecap:round;stroke-linejoin:round;stroke-dasharray:none;stroke-opacity:1"
         id="path4-6-9"
         sodipodi:type="arc"
         sodipodi:cx="-127.52905"
         sodipodi:cy="-43.360828"
         sodipodi:rx="2.0515141"
         sodipodi:ry="2.0515141"
         sodipodi:start="0.52359878"
         sodipodi:end="4.1887902"
         sodipodi:open="true"
         sodipodi:arc-type="arc"
         d="m -125.75239,-42.335071 a 2.0515141,2.0515141 0 0 1 -2.1329,0.99459 2.0515141,2.0515141 0 0 1 -1.66411,-1.664106 2.0515141,2.0515141 0 0 1 0.99459,-2.132905"
         transform="scale(-1)" />
      <path
         style="fill:none;fill-opacity:1;fill-rule:evenodd;stroke:#67a4e3;stroke-width:0.400295;stroke-linecap:round;stroke-linejoin:round;stroke-dasharray:none;stroke-opacity:1"
         id="path4-6-9-3"
         sodipodi:type="arc"
         sodipodi:cx="-127.52631"
         sodipodi:cy="-43.358097"
         sodipodi:rx="2.8020682"
         sodipodi:ry="2.8020682"
         sodipodi:start="0.52359878"
         sodipodi:end="4.1887902"
         sodipodi:open="true"
         sodipodi:arc-type="arc"
         d="m -125.09965,-41.957063 a 2.8020682,2.8020682 0 0 1 -2.91324,1.358464 2.8020682,2.8020682 0 0 1 -2.27292,-2.272924 2.8020682,2.8020682 0 0 1 1.35846,-2.913236"
         transform="scale(-1)" />
      <path
         style="fill:none;fill-opacity:1;fill-rule:evenodd;stroke:#d40000;stroke-width:1.00074;stroke-linecap:round;stroke-linejoin:round;stroke-dasharray:none;stroke-opacity:1"
         d="m 111.22633,57.685768 h 8.3786"
         id="path6" />
      <path
         style="fill:none;fill-opacity:1;fill-rule:evenodd;stroke:#d40000;stroke-width:1.00074;stroke-linecap:round;stroke-linejoin:round;stroke-dasharray:none;stroke-opacity:1"
         d="m 111.22633,76.972082 h 8.3786"
         id="path6-2" />
      <path
         style="fill:none;fill-opacity:1;fill-rule:evenodd;stroke:#ffb700;stroke-width:1.00074;stroke-linecap:round;stroke-linejoin:round;stroke-dasharray:none;stroke-opacity:1"
         d="M 108.17493,60.745981 V 72.910288"
         id="path7" />
      <rect
         style="fill:#ffd874;fill-opacity:1;fill-rule:evenodd;stroke:none;stroke-width:1.00074;stroke-linecap:round;stroke-linejoin:miter;stroke-dasharray:none;stroke-opacity:1"
         id="rect7"
         width="1.0007427"
         height="0.39220765"
         x="107.67455"
         y="61.610291" />
      <rect
         style="fill:#ffd874;fill-opacity:1;fill-rule:evenodd;stroke:none;stroke-width:1.00074;stroke-linecap:round;stroke-linejoin:miter;stroke-dasharray:none;stroke-opacity:1"
         id="rect7-4"
         width="1.0007427"
         height="0.39220765"
         x="107.67455"
         y="60.773338" />
      <rect
         style="fill:#ffd874;fill-opacity:1;fill-rule:evenodd;stroke:none;stroke-width:1.00074;stroke-linecap:round;stroke-linejoin:miter;stroke-dasharray:none;stroke-opacity:1"
         id="rect7-7"
         width="1.0007427"
         height="0.39220765"
         x="107.67455"
         y="69.979851" />
      <rect
         style="fill:#ffd874;fill-opacity:1;fill-rule:evenodd;stroke:none;stroke-width:1.00074;stroke-linecap:round;stroke-linejoin:miter;stroke-dasharray:none;stroke-opacity:1"
         id="rect7-7-9"
         width="1.0007427"
         height="0.39220765"
         x="107.67455"
         y="68.305939" />
      <rect
         style="fill:#ffd874;fill-opacity:1;fill-rule:evenodd;stroke:none;stroke-width:1.00074;stroke-linecap:round;stroke-linejoin:miter;stroke-dasharray:none;stroke-opacity:1"
         id="rect7-7-9-3"
         width="1.0007427"
         height="0.39220765"
         x="107.67455"
         y="66.632027" />
      <rect
         style="fill:#ffd874;fill-opacity:1;fill-rule:evenodd;stroke:none;stroke-width:1.00074;stroke-linecap:round;stroke-linejoin:miter;stroke-dasharray:none;stroke-opacity:1"
         id="rect7-7-9-1"
         width="1.0007427"
         height="0.39220765"
         x="107.67455"
         y="64.958115" />
      <rect
         style="fill:#ffd874;fill-opacity:1;fill-rule:evenodd;stroke:none;stroke-width:1.00074;stroke-linecap:round;stroke-linejoin:miter;stroke-dasharray:none;stroke-opacity:1"
         id="rect7-7-4"
         width="1.0007427"
         height="0.39220765"
         x="107.67455"
         y="71.653763" />
      <rect
         style="fill:#ffd874;fill-opacity:1;fill-rule:evenodd;stroke:none;stroke-width:1.00074;stroke-linecap:round;stroke-linejoin:miter;stroke-dasharray:none;stroke-opacity:1"
         id="rect7-2"
         width="1.0007427"
         height="0.39220765"
         x="107.67455"
         y="63.284203" />
      <rect
         style="fill:#ffd874;fill-opacity:1;fill-rule:evenodd;stroke:none;stroke-width:1.00074;stroke-linecap:round;stroke-linejoin:miter;stroke-dasharray:none;stroke-opacity:1"
         id="rect7-76"
         width="1.0007427"
         height="0.39220765"
         x="107.67455"
         y="62.44725" />
      <rect
         style="fill:#ffd874;fill-opacity:1;fill-rule:evenodd;stroke:none;stroke-width:1.00074;stroke-linecap:round;stroke-linejoin:miter;stroke-dasharray:none;stroke-opacity:1"
         id="rect7-7-5"
         width="1.0007427"
         height="0.39220765"
         x="107.67455"
         y="70.816803" />
      <rect
         style="fill:#ffd874;fill-opacity:1;fill-rule:evenodd;stroke:none;stroke-width:1.00074;stroke-linecap:round;stroke-linejoin:miter;stroke-dasharray:none;stroke-opacity:1"
         id="rect7-7-9-6"
         width="1.0007427"
         height="0.39220765"
         x="107.67455"
         y="69.142891" />
      <rect
         style="fill:#ffd874;fill-opacity:1;fill-rule:evenodd;stroke:none;stroke-width:1.00074;stroke-linecap:round;stroke-linejoin:miter;stroke-dasharray:none;stroke-opacity:1"
         id="rect7-7-9-3-9"
         width="1.0007427"
         height="0.39220765"
         x="107.67455"
         y="67.468979" />
      <rect
         style="fill:#ffd874;fill-opacity:1;fill-rule:evenodd;stroke:none;stroke-width:1.00074;stroke-linecap:round;stroke-linejoin:miter;stroke-dasharray:none;stroke-opacity:1"
         id="rect7-7-9-1-3"
         width="1.0007427"
         height="0.39220765"
         x="107.67455"
         y="65.795074" />
      <rect
         style="fill:#ffd874;fill-opacity:1;fill-rule:evenodd;stroke:none;stroke-width:1.00074;stroke-linecap:round;stroke-linejoin:miter;stroke-dasharray:none;stroke-opacity:1"
         id="rect7-7-4-7"
         width="1.0007427"
         height="0.39220765"
         x="107.67455"
         y="72.490715" />
      <rect
         style="fill:#ffd874;fill-opacity:1;fill-rule:evenodd;stroke:none;stroke-width:1.00074;stroke-linecap:round;stroke-linejoin:miter;stroke-dasharray:none;stroke-opacity:1"
         id="rect7-2-4"
         width="1.0007427"
         height="0.39220765"
         x="107.67455"
         y="64.121162" />
      <rect
         style="fill:#a7c4d5;fill-opacity:1;fill-rule:evenodd;stroke:#6e6e6e;stroke-width:0.5;stroke-linecap:round;stroke-linejoin:round;stroke-dasharray:none;stroke-opacity:1"
         id="rect406"
         width="26.250643"
         height="16.086903"
         x="135.71768"
         y="54.846622"
         transform="translate(-64.066582,3.9385194)" />
      <rect
         style="fill:#424242;fill-opacity:1;fill-rule:evenodd;stroke:#6e6e6e;stroke-width:0.499999;stroke-linecap:round;stroke-linejoin:round;stroke-dasharray:none;stroke-opacity:1"
         id="rect407"
         width="9.0579529"
         height="0.95129597"
         x="148.33627"
         y="68.826904"
         transform="translate(-64.066582,3.9385194)" />
      <path
         id="rect408"
         style="fill:#a9b5bb;fill-opacity:1;fill-rule:evenodd;stroke:#6e6e6e;stroke-width:0.1;stroke-linecap:round;stroke-dasharray:none;stroke-opacity:1"
         d="m 159.05,58 0.60565,0.5 v 7 L 159.05,66 Z"
         sodipodi:nodetypes="ccccc"
         transform="translate(-64.066582,3.9385194)" />
      <path
         id="path408"
         style="fill:#a9b5bb;fill-opacity:1;fill-rule:evenodd;stroke:#6e6e6e;stroke-width:0.1;stroke-linecap:round;stroke-dasharray:none;stroke-opacity:1"
         d="m 157.55,58 0.60565,0.5 v 7 L 157.55,66 Z"
         sodipodi:nodetypes="ccccc"
         transform="translate(-64.066582,3.9385194)" />
      <path
         id="path409"
         style="fill:#a9b5bb;fill-opacity:1;fill-rule:evenodd;stroke:#6e6e6e;stroke-width:0.1;stroke-linecap:round;stroke-dasharray:none;stroke-opacity:1"
         d="m 156.05,58 0.60565,0.5 v 7 L 156.05,66 Z"
         sodipodi:nodetypes="ccccc"
         transform="translate(-64.066582,3.9385194)" />
    </g>
    <g
       id="g415"
       inkscape:label="Text"
       style="display:inline">
      <text
         xml:space="preserve"
         style="font-style:normal;font-variant:normal;font-weight:normal;font-stretch:normal;font-size:11.2889px;line-height:0px;font-family:'Monaspace Krypton';-inkscape-font-specification:'Monaspace Krypton';text-align:center;text-anchor:middle;display:inline;fill:#ffffff;fill-opacity:1;fill-rule:evenodd;stroke:#6e6e6e;stroke-width:0.1;stroke-linecap:round;stroke-linejoin:miter;stroke-dasharray:none;stroke-opacity:1"
         x="136.69359"
         y="152.3412"
         id="text415-4"><tspan
           sodipodi:role="line"
           id="tspan415-1"
           style="font-size:11.2889px;stroke-width:0.1"
           x="136.69359"
           y="152.3412">Engines</tspan></text>
      <text
         xml:space="preserve"
         style="font-style:normal;font-variant:normal;font-weight:normal;font-stretch:normal;font-size:11.2889px;line-height:0px;font-family:'Monaspace Krypton';-inkscape-font-specification:'Monaspace Krypton';text-align:center;text-anchor:middle;display:inline;opacity:1;fill:#ffffff;fill-opacity:1;fill-rule:evenodd;stroke:#6e6e6e;stroke-width:0.1;stroke-linecap:round;stroke-linejoin:miter;stroke-dasharray:none;stroke-opacity:1"
         x="68.443436"
         y="63.026966"
         id="text415"><tspan
           sodipodi:role="line"
           id="tspan415"
           style="font-size:11.2889px;stroke-width:0.1"
           x="68.443436"
           y="63.026966">Einstein</tspan></text>
    </g>
  </g>
</svg>
